<svg width="88" height="72" viewBox="0 0 88 72" fill="none" xmlns="http://www.w3.org/2000/svg">
<path d="M0.460625 36C0.460625 24.992 2.57263 16.32 6.79663 9.984C11.0846 3.64799 17.9646 0.479994 27.4366 0.479994C36.9086 0.479994 43.7566 3.64799 47.9806 9.984C52.2686 16.32 54.4126 24.992 54.4126 36C54.4126 47.136 52.2686 55.872 47.9806 62.208C43.7566 68.544 36.9086 71.712 27.4366 71.712C17.9646 71.712 11.0846 68.544 6.79663 62.208C2.57263 55.872 0.460625 47.136 0.460625 36ZM38.2846 36C38.2846 29.536 37.5806 24.576 36.1726 21.12C34.7646 17.6 31.8526 15.84 27.4366 15.84C23.0206 15.84 20.1086 17.6 18.7006 21.12C17.2926 24.576 16.5886 29.536 16.5886 36C16.5886 40.352 16.8446 43.968 17.3566 46.848C17.8686 49.664 18.8926 51.968 20.4286 53.76C22.0286 55.488 24.3646 56.352 27.4366 56.352C30.5086 56.352 32.8126 55.488 34.3486 53.76C35.9486 51.968 37.0046 49.664 37.5166 46.848C38.0286 43.968 38.2846 40.352 38.2846 36ZM61.3576 17.184V1.92H87.9496V72H70.8616V17.184H61.3576Z" fill="#D7D7D7"/>
</svg>
