<svg width="111" height="72" viewBox="0 0 111 72" fill="none" xmlns="http://www.w3.org/2000/svg">
<path d="M0.585625 36C0.585625 24.992 2.69763 16.32 6.92163 9.984C11.2096 3.64799 18.0896 0.479994 27.5616 0.479994C37.0336 0.479994 43.8816 3.64799 48.1056 9.984C52.3936 16.32 54.5376 24.992 54.5376 36C54.5376 47.136 52.3936 55.872 48.1056 62.208C43.8816 68.544 37.0336 71.712 27.5616 71.712C18.0896 71.712 11.2096 68.544 6.92163 62.208C2.69763 55.872 0.585625 47.136 0.585625 36ZM38.4096 36C38.4096 29.536 37.7056 24.576 36.2976 21.12C34.8896 17.6 31.9776 15.84 27.5616 15.84C23.1456 15.84 20.2336 17.6 18.8256 21.12C17.4176 24.576 16.7136 29.536 16.7136 36C16.7136 40.352 16.9696 43.968 17.4816 46.848C17.9936 49.664 19.0176 51.968 20.5536 53.76C22.1536 55.488 24.4896 56.352 27.5616 56.352C30.6336 56.352 32.9376 55.488 34.4736 53.76C36.0736 51.968 37.1296 49.664 37.6416 46.848C38.1536 43.968 38.4096 40.352 38.4096 36ZM62.6346 58.848C64.8106 57.12 65.8026 56.32 65.6106 56.448C71.8826 51.264 76.8106 47.008 80.3946 43.68C84.0426 40.352 87.1146 36.864 89.6106 33.216C92.1066 29.568 93.3546 26.016 93.3546 22.56C93.3546 19.936 92.7466 17.888 91.5306 16.416C90.3146 14.944 88.4906 14.208 86.0586 14.208C83.6266 14.208 81.7066 15.136 80.2986 16.992C78.9546 18.784 78.2826 21.344 78.2826 24.672H62.4426C62.5706 19.232 63.7226 14.688 65.8986 11.04C68.1386 7.392 71.0506 4.704 74.6346 2.976C78.2826 1.248 82.3146 0.383995 86.7306 0.383995C94.3466 0.383995 100.075 2.33599 103.915 6.23999C107.819 10.144 109.771 15.232 109.771 21.504C109.771 28.352 107.435 34.72 102.763 40.608C98.0906 46.432 92.1386 52.128 84.9066 57.696H110.827V71.04H62.6346V58.848Z" fill="#D7D7D7"/>
</svg>
