<svg width="112" height="73" viewBox="0 0 112 73" fill="none" xmlns="http://www.w3.org/2000/svg">
<path d="M0.445 36C0.445 24.992 2.557 16.32 6.781 9.984C11.069 3.64799 17.949 0.479994 27.421 0.479994C36.893 0.479994 43.741 3.64799 47.965 9.984C52.253 16.32 54.397 24.992 54.397 36C54.397 47.136 52.253 55.872 47.965 62.208C43.741 68.544 36.893 71.712 27.421 71.712C17.949 71.712 11.069 68.544 6.781 62.208C2.557 55.872 0.445 47.136 0.445 36ZM38.269 36C38.269 29.536 37.565 24.576 36.157 21.12C34.749 17.6 31.837 15.84 27.421 15.84C23.005 15.84 20.093 17.6 18.685 21.12C17.277 24.576 16.573 29.536 16.573 36C16.573 40.352 16.829 43.968 17.341 46.848C17.853 49.664 18.877 51.968 20.413 53.76C22.013 55.488 24.349 56.352 27.421 56.352C30.493 56.352 32.797 55.488 34.333 53.76C35.933 51.968 36.989 49.664 37.501 46.848C38.013 43.968 38.269 40.352 38.269 36ZM63.646 21.696C63.902 14.848 66.142 9.568 70.366 5.856C74.59 2.144 80.318 0.287996 87.55 0.287996C92.35 0.287996 96.446 1.12 99.838 2.784C103.294 4.448 105.886 6.72 107.614 9.6C109.406 12.48 110.302 15.712 110.302 19.296C110.302 23.52 109.246 26.976 107.134 29.664C105.022 32.288 102.558 34.08 99.742 35.04V35.424C103.39 36.64 106.27 38.656 108.382 41.472C110.494 44.288 111.55 47.904 111.55 52.32C111.55 56.288 110.622 59.808 108.766 62.88C106.974 65.888 104.318 68.256 100.798 69.984C97.342 71.712 93.214 72.576 88.414 72.576C80.734 72.576 74.59 70.688 69.982 66.912C65.438 63.136 63.038 57.44 62.782 49.824H78.718C78.782 52.64 79.582 54.88 81.118 56.544C82.654 58.144 84.894 58.944 87.838 58.944C90.334 58.944 92.254 58.24 93.598 56.832C95.006 55.36 95.71 53.44 95.71 51.072C95.71 48 94.718 45.792 92.734 44.448C90.814 43.04 87.71 42.336 83.422 42.336H80.35V28.992H83.422C86.686 28.992 89.31 28.448 91.294 27.36C93.342 26.208 94.366 24.192 94.366 21.312C94.366 19.008 93.726 17.216 92.446 15.936C91.166 14.656 89.406 14.016 87.166 14.016C84.734 14.016 82.91 14.752 81.694 16.224C80.542 17.696 79.87 19.52 79.678 21.696H63.646Z" fill="#D7D7D7"/>
</svg>
