<svg width="277" height="254" viewBox="0 0 277 254" fill="none" xmlns="http://www.w3.org/2000/svg">
<g filter="url(#filter0_b_13_3564)">
<rect x="89" width="188" height="68" fill="white" fill-opacity="0.6"/>
</g>
<path d="M200.08 22.66L197.32 27.976V31H195.952V27.976L193.18 22.66H194.704L196.636 26.752L198.568 22.66H200.08ZM207.226 27.532C207.226 27.78 207.21 28.004 207.178 28.204H202.126C202.166 28.732 202.362 29.156 202.714 29.476C203.066 29.796 203.498 29.956 204.01 29.956C204.746 29.956 205.266 29.648 205.57 29.032H207.046C206.846 29.64 206.482 30.14 205.954 30.532C205.434 30.916 204.786 31.108 204.01 31.108C203.378 31.108 202.81 30.968 202.306 30.688C201.81 30.4 201.418 30 201.13 29.488C200.85 28.968 200.71 28.368 200.71 27.688C200.71 27.008 200.846 26.412 201.118 25.9C201.398 25.38 201.786 24.98 202.282 24.7C202.786 24.42 203.362 24.28 204.01 24.28C204.634 24.28 205.19 24.416 205.678 24.688C206.166 24.96 206.546 25.344 206.818 25.84C207.09 26.328 207.226 26.892 207.226 27.532ZM205.798 27.1C205.79 26.596 205.61 26.192 205.258 25.888C204.906 25.584 204.47 25.432 203.95 25.432C203.478 25.432 203.074 25.584 202.738 25.888C202.402 26.184 202.202 26.588 202.138 27.1H205.798ZM208.116 27.664C208.116 27 208.252 26.412 208.524 25.9C208.804 25.388 209.18 24.992 209.652 24.712C210.132 24.424 210.66 24.28 211.236 24.28C211.756 24.28 212.208 24.384 212.592 24.592C212.984 24.792 213.296 25.044 213.528 25.348V24.388H214.908V31H213.528V30.016C213.296 30.328 212.98 30.588 212.58 30.796C212.18 31.004 211.724 31.108 211.212 31.108C210.644 31.108 210.124 30.964 209.652 30.676C209.18 30.38 208.804 29.972 208.524 29.452C208.252 28.924 208.116 28.328 208.116 27.664ZM213.528 27.688C213.528 27.232 213.432 26.836 213.24 26.5C213.056 26.164 212.812 25.908 212.508 25.732C212.204 25.556 211.876 25.468 211.524 25.468C211.172 25.468 210.844 25.556 210.54 25.732C210.236 25.9 209.988 26.152 209.796 26.488C209.612 26.816 209.52 27.208 209.52 27.664C209.52 28.12 209.612 28.52 209.796 28.864C209.988 29.208 210.236 29.472 210.54 29.656C210.852 29.832 211.18 29.92 211.524 29.92C211.876 29.92 212.204 29.832 212.508 29.656C212.812 29.48 213.056 29.224 213.24 28.888C213.432 28.544 213.528 28.144 213.528 27.688ZM218.073 25.348C218.273 25.012 218.537 24.752 218.865 24.568C219.201 24.376 219.597 24.28 220.053 24.28V25.696H219.705C219.169 25.696 218.761 25.832 218.481 26.104C218.209 26.376 218.073 26.848 218.073 27.52V31H216.705V24.388H218.073V25.348ZM223.71 31.108C223.19 31.108 222.722 31.016 222.306 30.832C221.898 30.64 221.574 30.384 221.334 30.064C221.094 29.736 220.966 29.372 220.95 28.972H222.366C222.39 29.252 222.522 29.488 222.762 29.68C223.01 29.864 223.318 29.956 223.686 29.956C224.07 29.956 224.366 29.884 224.574 29.74C224.79 29.588 224.898 29.396 224.898 29.164C224.898 28.916 224.778 28.732 224.538 28.612C224.306 28.492 223.934 28.36 223.422 28.216C222.926 28.08 222.522 27.948 222.21 27.82C221.898 27.692 221.626 27.496 221.394 27.232C221.17 26.968 221.058 26.62 221.058 26.188C221.058 25.836 221.162 25.516 221.37 25.228C221.578 24.932 221.874 24.7 222.258 24.532C222.65 24.364 223.098 24.28 223.602 24.28C224.354 24.28 224.958 24.472 225.414 24.856C225.878 25.232 226.126 25.748 226.158 26.404H224.79C224.766 26.108 224.646 25.872 224.43 25.696C224.214 25.52 223.922 25.432 223.554 25.432C223.194 25.432 222.918 25.5 222.726 25.636C222.534 25.772 222.438 25.952 222.438 26.176C222.438 26.352 222.502 26.5 222.63 26.62C222.758 26.74 222.914 26.836 223.098 26.908C223.282 26.972 223.554 27.056 223.914 27.16C224.394 27.288 224.786 27.42 225.09 27.556C225.402 27.684 225.67 27.876 225.894 28.132C226.118 28.388 226.234 28.728 226.242 29.152C226.242 29.528 226.138 29.864 225.93 30.16C225.722 30.456 225.426 30.688 225.042 30.856C224.666 31.024 224.222 31.108 223.71 31.108ZM195.268 37.764V40.212H198.148V41.328H195.268V43.884H198.508V45H193.9V36.648H198.508V37.764H195.268ZM203.025 41.652L205.161 45H203.613L202.185 42.756L200.841 45H199.413L201.549 41.748L199.413 38.388H200.961L202.389 40.632L203.733 38.388H205.161L203.025 41.652ZM207.549 39.36C207.781 39.056 208.097 38.8 208.497 38.592C208.897 38.384 209.349 38.28 209.853 38.28C210.429 38.28 210.953 38.424 211.425 38.712C211.905 38.992 212.281 39.388 212.553 39.9C212.825 40.412 212.961 41 212.961 41.664C212.961 42.328 212.825 42.924 212.553 43.452C212.281 43.972 211.905 44.38 211.425 44.676C210.953 44.964 210.429 45.108 209.853 45.108C209.349 45.108 208.901 45.008 208.509 44.808C208.117 44.6 207.797 44.344 207.549 44.04V48.144H206.181V38.388H207.549V39.36ZM211.569 41.664C211.569 41.208 211.473 40.816 211.281 40.488C211.097 40.152 210.849 39.9 210.537 39.732C210.233 39.556 209.905 39.468 209.553 39.468C209.209 39.468 208.881 39.556 208.569 39.732C208.265 39.908 208.017 40.164 207.825 40.5C207.641 40.836 207.549 41.232 207.549 41.688C207.549 42.144 207.641 42.544 207.825 42.888C208.017 43.224 208.265 43.48 208.569 43.656C208.881 43.832 209.209 43.92 209.553 43.92C209.905 43.92 210.233 43.832 210.537 43.656C210.849 43.472 211.097 43.208 211.281 42.864C211.473 42.52 211.569 42.12 211.569 41.664ZM220.374 41.532C220.374 41.78 220.358 42.004 220.326 42.204H215.274C215.314 42.732 215.51 43.156 215.862 43.476C216.214 43.796 216.646 43.956 217.158 43.956C217.894 43.956 218.414 43.648 218.718 43.032H220.194C219.994 43.64 219.63 44.14 219.102 44.532C218.582 44.916 217.934 45.108 217.158 45.108C216.526 45.108 215.958 44.968 215.454 44.688C214.958 44.4 214.566 44 214.278 43.488C213.998 42.968 213.858 42.368 213.858 41.688C213.858 41.008 213.994 40.412 214.266 39.9C214.546 39.38 214.934 38.98 215.43 38.7C215.934 38.42 216.51 38.28 217.158 38.28C217.782 38.28 218.338 38.416 218.826 38.688C219.314 38.96 219.694 39.344 219.966 39.84C220.238 40.328 220.374 40.892 220.374 41.532ZM218.946 41.1C218.938 40.596 218.758 40.192 218.406 39.888C218.054 39.584 217.618 39.432 217.098 39.432C216.626 39.432 216.222 39.584 215.886 39.888C215.55 40.184 215.35 40.588 215.286 41.1H218.946ZM223.088 39.348C223.288 39.012 223.552 38.752 223.88 38.568C224.216 38.376 224.612 38.28 225.068 38.28V39.696H224.72C224.184 39.696 223.776 39.832 223.496 40.104C223.224 40.376 223.088 40.848 223.088 41.52V45H221.72V38.388H223.088V39.348ZM227.022 37.512C226.774 37.512 226.566 37.428 226.398 37.26C226.23 37.092 226.146 36.884 226.146 36.636C226.146 36.388 226.23 36.18 226.398 36.012C226.566 35.844 226.774 35.76 227.022 35.76C227.262 35.76 227.466 35.844 227.634 36.012C227.802 36.18 227.886 36.388 227.886 36.636C227.886 36.884 227.802 37.092 227.634 37.26C227.466 37.428 227.262 37.512 227.022 37.512ZM227.694 38.388V45H226.326V38.388H227.694ZM235.55 41.532C235.55 41.78 235.534 42.004 235.502 42.204H230.45C230.49 42.732 230.686 43.156 231.038 43.476C231.39 43.796 231.822 43.956 232.334 43.956C233.07 43.956 233.59 43.648 233.894 43.032H235.37C235.17 43.64 234.806 44.14 234.278 44.532C233.758 44.916 233.11 45.108 232.334 45.108C231.702 45.108 231.134 44.968 230.63 44.688C230.134 44.4 229.742 44 229.454 43.488C229.174 42.968 229.034 42.368 229.034 41.688C229.034 41.008 229.17 40.412 229.442 39.9C229.722 39.38 230.11 38.98 230.606 38.7C231.11 38.42 231.686 38.28 232.334 38.28C232.958 38.28 233.514 38.416 234.002 38.688C234.49 38.96 234.87 39.344 235.142 39.84C235.414 40.328 235.55 40.892 235.55 41.532ZM234.122 41.1C234.114 40.596 233.934 40.192 233.582 39.888C233.23 39.584 232.794 39.432 232.274 39.432C231.802 39.432 231.398 39.584 231.062 39.888C230.726 40.184 230.526 40.588 230.462 41.1H234.122ZM240.232 38.28C240.752 38.28 241.216 38.388 241.624 38.604C242.04 38.82 242.364 39.14 242.596 39.564C242.828 39.988 242.944 40.5 242.944 41.1V45H241.588V41.304C241.588 40.712 241.44 40.26 241.144 39.948C240.848 39.628 240.444 39.468 239.932 39.468C239.42 39.468 239.012 39.628 238.708 39.948C238.412 40.26 238.264 40.712 238.264 41.304V45H236.896V38.388H238.264V39.144C238.488 38.872 238.772 38.66 239.116 38.508C239.468 38.356 239.84 38.28 240.232 38.28ZM244.233 41.688C244.233 41.008 244.369 40.412 244.641 39.9C244.921 39.38 245.305 38.98 245.793 38.7C246.281 38.42 246.841 38.28 247.473 38.28C248.273 38.28 248.933 38.472 249.453 38.856C249.981 39.232 250.337 39.772 250.521 40.476H249.045C248.925 40.148 248.733 39.892 248.469 39.708C248.205 39.524 247.873 39.432 247.473 39.432C246.913 39.432 246.465 39.632 246.129 40.032C245.801 40.424 245.637 40.976 245.637 41.688C245.637 42.4 245.801 42.956 246.129 43.356C246.465 43.756 246.913 43.956 247.473 43.956C248.265 43.956 248.789 43.608 249.045 42.912H250.521C250.329 43.584 249.969 44.12 249.441 44.52C248.913 44.912 248.257 45.108 247.473 45.108C246.841 45.108 246.281 44.968 245.793 44.688C245.305 44.4 244.921 44 244.641 43.488C244.369 42.968 244.233 42.368 244.233 41.688ZM257.944 41.532C257.944 41.78 257.928 42.004 257.896 42.204H252.844C252.884 42.732 253.08 43.156 253.432 43.476C253.784 43.796 254.216 43.956 254.728 43.956C255.464 43.956 255.984 43.648 256.288 43.032H257.764C257.564 43.64 257.2 44.14 256.672 44.532C256.152 44.916 255.504 45.108 254.728 45.108C254.096 45.108 253.528 44.968 253.024 44.688C252.528 44.4 252.136 44 251.848 43.488C251.568 42.968 251.428 42.368 251.428 41.688C251.428 41.008 251.564 40.412 251.836 39.9C252.116 39.38 252.504 38.98 253 38.7C253.504 38.42 254.08 38.28 254.728 38.28C255.352 38.28 255.908 38.416 256.396 38.688C256.884 38.96 257.264 39.344 257.536 39.84C257.808 40.328 257.944 40.892 257.944 41.532ZM256.516 41.1C256.508 40.596 256.328 40.192 255.976 39.888C255.624 39.584 255.188 39.432 254.668 39.432C254.196 39.432 253.792 39.584 253.456 39.888C253.12 40.184 252.92 40.588 252.856 41.1H256.516Z" fill="#313131"/>
<path d="M114.92 41.8C117.48 39.5867 119.493 37.7733 120.96 36.36C122.453 34.92 123.693 33.4267 124.68 31.88C125.667 30.3333 126.16 28.7867 126.16 27.24C126.16 25.64 125.773 24.3867 125 23.48C124.253 22.5733 123.067 22.12 121.44 22.12C119.867 22.12 118.64 22.6267 117.76 23.64C116.907 24.6267 116.453 25.96 116.4 27.64H112C112.08 24.6 112.987 22.28 114.72 20.68C116.48 19.0533 118.707 18.24 121.4 18.24C124.307 18.24 126.573 19.04 128.2 20.64C129.853 22.24 130.68 24.3733 130.68 27.04C130.68 28.96 130.187 30.8133 129.2 32.6C128.24 34.36 127.08 35.9467 125.72 37.36C124.387 38.7467 122.68 40.36 120.6 42.2L118.8 43.8H131.48V47.6H112.04V44.28L114.92 41.8ZM135.486 33.04C135.486 28.4267 136.259 24.8267 137.806 22.24C139.379 19.6267 142.073 18.32 145.886 18.32C149.699 18.32 152.379 19.6267 153.926 22.24C155.499 24.8267 156.286 28.4267 156.286 33.04C156.286 37.7067 155.499 41.36 153.926 44C152.379 46.6133 149.699 47.92 145.886 47.92C142.073 47.92 139.379 46.6133 137.806 44C136.259 41.36 135.486 37.7067 135.486 33.04ZM151.806 33.04C151.806 30.88 151.659 29.0533 151.366 27.56C151.099 26.0667 150.539 24.8533 149.686 23.92C148.833 22.96 147.566 22.48 145.886 22.48C144.206 22.48 142.939 22.96 142.086 23.92C141.233 24.8533 140.659 26.0667 140.366 27.56C140.099 29.0533 139.966 30.88 139.966 33.04C139.966 35.28 140.099 37.16 140.366 38.68C140.633 40.2 141.193 41.4267 142.046 42.36C142.926 43.2933 144.206 43.76 145.886 43.76C147.566 43.76 148.833 43.2933 149.686 42.36C150.566 41.4267 151.139 40.2 151.406 38.68C151.673 37.16 151.806 35.28 151.806 33.04ZM183.191 35.48H175.111V43.76H170.871V35.48H162.791V31.64H170.871V23.36H175.111V31.64H183.191V35.48Z" fill="#0AC05E"/>
<g filter="url(#filter1_dddddd_13_3564)">
<circle cx="94" cy="60" r="8" fill="#0AC05E"/>
<circle cx="94" cy="60" r="11" stroke="white" stroke-width="6"/>
</g>
<defs>
<filter id="filter0_b_13_3564" x="79" y="-10" width="208" height="88" filterUnits="userSpaceOnUse" color-interpolation-filters="sRGB">
<feFlood flood-opacity="0" result="BackgroundImageFix"/>
<feGaussianBlur in="BackgroundImage" stdDeviation="5"/>
<feComposite in2="SourceAlpha" operator="in" result="effect1_backgroundBlur_13_3564"/>
<feBlend mode="normal" in="SourceGraphic" in2="effect1_backgroundBlur_13_3564" result="shape"/>
</filter>
<filter id="filter1_dddddd_13_3564" x="0" y="44.7037" width="188" height="209.296" filterUnits="userSpaceOnUse" color-interpolation-filters="sRGB">
<feFlood flood-opacity="0" result="BackgroundImageFix"/>
<feColorMatrix in="SourceAlpha" type="matrix" values="0 0 0 0 0 0 0 0 0 0 0 0 0 0 0 0 0 0 127 0" result="hardAlpha"/>
<feOffset dy="1.85185"/>
<feGaussianBlur stdDeviation="1.57407"/>
<feColorMatrix type="matrix" values="0 0 0 0 0.219608 0 0 0 0 0.219608 0 0 0 0 0.219608 0 0 0 0.0240741 0"/>
<feBlend mode="normal" in2="BackgroundImageFix" result="effect1_dropShadow_13_3564"/>
<feColorMatrix in="SourceAlpha" type="matrix" values="0 0 0 0 0 0 0 0 0 0 0 0 0 0 0 0 0 0 127 0" result="hardAlpha"/>
<feOffset dy="8.14815"/>
<feGaussianBlur stdDeviation="3.25926"/>
<feColorMatrix type="matrix" values="0 0 0 0 0.219608 0 0 0 0 0.219608 0 0 0 0 0.219608 0 0 0 0.0392593 0"/>
<feBlend mode="normal" in2="effect1_dropShadow_13_3564" result="effect2_dropShadow_13_3564"/>
<feColorMatrix in="SourceAlpha" type="matrix" values="0 0 0 0 0 0 0 0 0 0 0 0 0 0 0 0 0 0 127 0" result="hardAlpha"/>
<feOffset dy="20"/>
<feGaussianBlur stdDeviation="6.5"/>
<feColorMatrix type="matrix" values="0 0 0 0 0.219608 0 0 0 0 0.219608 0 0 0 0 0.219608 0 0 0 0.05 0"/>
<feBlend mode="normal" in2="effect2_dropShadow_13_3564" result="effect3_dropShadow_13_3564"/>
<feColorMatrix in="SourceAlpha" type="matrix" values="0 0 0 0 0 0 0 0 0 0 0 0 0 0 0 0 0 0 127 0" result="hardAlpha"/>
<feOffset dy="38.5185"/>
<feGaussianBlur stdDeviation="12.7407"/>
<feColorMatrix type="matrix" values="0 0 0 0 0.219608 0 0 0 0 0.219608 0 0 0 0 0.219608 0 0 0 0.0607407 0"/>
<feBlend mode="normal" in2="effect3_dropShadow_13_3564" result="effect4_dropShadow_13_3564"/>
<feColorMatrix in="SourceAlpha" type="matrix" values="0 0 0 0 0 0 0 0 0 0 0 0 0 0 0 0 0 0 127 0" result="hardAlpha"/>
<feOffset dy="64.8148"/>
<feGaussianBlur stdDeviation="23.4259"/>
<feColorMatrix type="matrix" values="0 0 0 0 0.219608 0 0 0 0 0.219608 0 0 0 0 0.219608 0 0 0 0.0759259 0"/>
<feBlend mode="normal" in2="effect4_dropShadow_13_3564" result="effect5_dropShadow_13_3564"/>
<feColorMatrix in="SourceAlpha" type="matrix" values="0 0 0 0 0 0 0 0 0 0 0 0 0 0 0 0 0 0 127 0" result="hardAlpha"/>
<feOffset dy="100"/>
<feGaussianBlur stdDeviation="40"/>
<feColorMatrix type="matrix" values="0 0 0 0 0.219608 0 0 0 0 0.219608 0 0 0 0 0.219608 0 0 0 0.1 0"/>
<feBlend mode="normal" in2="effect5_dropShadow_13_3564" result="effect6_dropShadow_13_3564"/>
<feBlend mode="normal" in="SourceGraphic" in2="effect6_dropShadow_13_3564" result="shape"/>
</filter>
</defs>
</svg>
