<svg width="307" height="340" viewBox="0 0 307 340" fill="none" xmlns="http://www.w3.org/2000/svg">
<g filter="url(#filter0_b_13_3570)">
<rect width="306.271" height="339.309" fill="white" fill-opacity="0.6"/>
</g>
<path fill-rule="evenodd" clip-rule="evenodd" d="M278.596 291.984L41.9725 291.984L41.9725 291.091L278.596 291.091L278.596 291.984Z" fill="#EEF0F2"/>
<path fill-rule="evenodd" clip-rule="evenodd" d="M278.596 234.837L41.9725 234.837L41.9725 233.944L278.596 233.944L278.596 234.837Z" fill="#EEF0F2"/>
<path fill-rule="evenodd" clip-rule="evenodd" d="M278.592 178.583L41.9686 178.583L41.9686 177.69L278.592 177.69L278.592 178.583Z" fill="#EEF0F2"/>
<path fill-rule="evenodd" clip-rule="evenodd" d="M278.592 122.329L41.9686 122.329L41.9686 121.436L278.592 121.436L278.592 122.329Z" fill="#EEF0F2"/>
<path d="M21.2386 291.268H26.0256V290.327H22.7514V290.273L24.1967 288.76C25.5284 287.415 25.9084 286.772 25.9084 285.959C25.9084 284.79 24.9567 283.895 23.5859 283.895C22.2259 283.895 21.2315 284.776 21.2315 286.104H22.2791C22.2756 285.323 22.7798 284.812 23.5646 284.812C24.3033 284.812 24.8643 285.266 24.8643 285.991C24.8643 286.633 24.4808 287.095 23.6996 287.922L21.2386 290.472V291.268ZM27.3857 291.268H28.4474V289.332L28.9766 288.803L30.8303 291.268H32.1335L29.7756 288.153L31.9844 285.813H30.7131L28.5398 288.121H28.4474V283.995H27.3857V291.268Z" fill="#313131"/>
<path d="M20.1953 232.701H23.6435V234.121H24.6911V232.701H25.6534V231.77H24.6911V226.848H23.3381L20.1953 231.813V232.701ZM23.6506 231.77H21.3459V231.713L23.5937 228.155H23.6506V231.77ZM26.9052 234.121H27.967V232.186L28.4961 231.657L30.3498 234.121H31.6531L29.2951 231.007L31.5039 228.667H30.2326L28.0593 230.975H27.967V226.848H26.9052V234.121Z" fill="#313131"/>
<path d="M22.8832 177.966C24.4031 177.98 25.4116 176.886 25.408 175.491C25.4116 174.099 24.3995 173.101 23.1388 173.101C22.3718 173.101 21.7077 173.47 21.3349 174.084H21.2816C21.2852 172.433 21.9102 171.453 22.9755 171.453C23.6751 171.453 24.1154 171.879 24.2646 172.483H25.3477C25.1808 171.332 24.2752 170.494 22.9755 170.494C21.2852 170.494 20.2305 171.947 20.2305 174.475C20.2269 177.153 21.5906 177.955 22.8832 177.966ZM22.8796 177.043C22.0344 177.043 21.4165 176.332 21.4165 175.516C21.4201 174.702 22.0664 173.992 22.9045 173.992C23.7354 173.992 24.3462 174.663 24.3427 175.505C24.3462 176.364 23.7106 177.043 22.8796 177.043ZM26.7157 177.866H27.7775V175.931L28.3066 175.402L30.1603 177.866H31.4636L29.1056 174.752L31.3145 172.412H30.0431L27.8699 174.72H27.7775V170.594H26.7157V177.866Z" fill="#313131"/>
<path d="M22.8015 121.713C24.3143 121.713 25.3832 120.853 25.3903 119.674C25.3832 118.758 24.7404 117.988 23.9272 117.842V117.799C24.6339 117.629 25.1133 116.965 25.1204 116.18C25.1133 115.069 24.1332 114.241 22.8015 114.241C21.4556 114.241 20.4755 115.069 20.4826 116.18C20.4755 116.961 20.9549 117.629 21.6758 117.799V117.842C20.8484 117.988 20.2056 118.758 20.2127 119.674C20.2056 120.853 21.2745 121.713 22.8015 121.713ZM22.8015 120.814C21.8924 120.814 21.3171 120.331 21.3242 119.603C21.3171 118.847 21.9421 118.307 22.8015 118.307C23.6467 118.307 24.2717 118.847 24.2788 119.603C24.2717 120.331 23.6999 120.814 22.8015 120.814ZM22.8015 117.43C22.0664 117.43 21.5444 116.965 21.5515 116.272C21.5444 115.591 22.0487 115.14 22.8015 115.14C23.5401 115.14 24.0444 115.591 24.0515 116.272C24.0444 116.965 23.5259 117.43 22.8015 117.43ZM26.6767 121.613H27.7385V119.678L28.2676 119.149L30.1213 121.613H31.4245L29.0666 118.499L31.2754 116.159H30.0041L27.8308 118.467H27.7385V114.341H26.6767V121.613Z" fill="#313131"/>
<path d="M32.0388 70.2899H29.281L25.3044 72.8445V75.5008L29.0466 73.1102H29.1404V86.2899H32.0388V70.2899ZM41.9607 86.5086C45.4138 86.532 47.7341 84.157 47.7263 80.993C47.7341 77.9695 45.5779 75.782 42.7732 75.782C41.0544 75.782 39.5388 76.618 38.7732 77.993H38.6638C38.6716 74.6258 39.906 72.5789 42.1248 72.5789C43.4998 72.5789 44.4294 73.3758 44.7263 74.6024H47.5779C47.2341 72.0164 45.1482 70.0711 42.1248 70.0711C38.281 70.0711 35.8513 73.2742 35.8513 78.743C35.8435 84.6102 38.8904 86.493 41.9607 86.5086ZM41.9451 84.1649C40.2341 84.1649 38.9841 82.7508 38.9763 81.0789C38.9919 79.3992 40.2888 77.993 41.9841 77.993C43.6794 77.993 44.9216 79.3367 44.9138 81.0555C44.9216 82.8055 43.6404 84.1649 41.9451 84.1649ZM51.4529 86.4617C52.3748 86.4617 53.1638 85.6961 53.1716 84.743C53.1638 83.8055 52.3748 83.0399 51.4529 83.0399C50.4998 83.0399 49.7263 83.8055 49.7341 84.743C49.7263 85.6961 50.4998 86.4617 51.4529 86.4617ZM56.0603 86.2899H67.0291V83.868H60.0603V83.7586L62.8181 80.9539C65.9275 77.9695 66.7869 76.5164 66.7869 74.7117C66.7869 72.032 64.6072 70.0711 61.3884 70.0711C58.2166 70.0711 55.9666 72.0399 55.9666 75.0789H58.7244C58.7244 73.4461 59.7556 72.4227 61.3494 72.4227C62.8728 72.4227 64.0056 73.3524 64.0056 74.8602C64.0056 76.1961 63.1931 77.1492 61.615 78.7508L56.0603 84.1961V86.2899ZM69.7556 86.2899H72.5837V82.2586L73.615 81.157L77.2869 86.2899H80.6697L75.7478 79.4695L80.3962 74.2899H77.0915L72.7791 79.1102H72.5837V70.2899H69.7556V86.2899Z" fill="#313131"/>
<path d="M94.9748 77.5626H93.6708V83.9717H93.5898L89.1495 77.5626H87.9307V86.2899H89.2475V79.8893H89.3285L93.7645 86.2899H94.9748V77.5626ZM99.6143 86.422C101.042 86.422 102.052 85.7188 102.342 84.6535L101.136 84.4362C100.906 85.0541 100.352 85.3694 99.6271 85.3694C98.5362 85.3694 97.8032 84.662 97.7691 83.4007H102.423V82.9489C102.423 80.5839 101.008 79.6592 99.5248 79.6592C97.701 79.6592 96.4993 81.0484 96.4993 83.0597C96.4993 85.0924 97.6839 86.422 99.6143 86.422ZM97.7734 82.4461C97.8245 81.5171 98.4978 80.7117 99.5333 80.7117C100.522 80.7117 101.17 81.4447 101.174 82.4461H97.7734ZM105.244 86.2899H106.539L107.869 81.564H107.967L109.296 86.2899H110.596L112.518 79.7444H111.201L109.927 84.5299H109.863L108.584 79.7444H107.268L105.981 84.5512H105.917L104.634 79.7444H103.317L105.244 86.2899ZM117.005 86.2899H118.322V82.4845H122.029V81.3552H118.322V78.6961H122.417V77.5626H117.005V86.2899ZM126.211 86.422C128.056 86.422 129.262 85.0711 129.262 83.047C129.262 81.01 128.056 79.6592 126.211 79.6592C124.365 79.6592 123.159 81.01 123.159 83.047C123.159 85.0711 124.365 86.422 126.211 86.422ZM126.215 85.3524C125.009 85.3524 124.446 84.2998 124.446 83.0427C124.446 81.7899 125.009 80.7245 126.215 80.7245C127.412 80.7245 127.975 81.7899 127.975 83.0427C127.975 84.2998 127.412 85.3524 126.215 85.3524ZM131.958 77.5626H130.684V86.2899H131.958V77.5626ZM134.946 77.5626H133.672V86.2899H134.946V77.5626ZM139.418 86.422C141.263 86.422 142.469 85.0711 142.469 83.047C142.469 81.01 141.263 79.6592 139.418 79.6592C137.572 79.6592 136.366 81.01 136.366 83.047C136.366 85.0711 137.572 86.422 139.418 86.422ZM139.422 85.3524C138.216 85.3524 137.653 84.2998 137.653 83.0427C137.653 81.7899 138.216 80.7245 139.422 80.7245C140.619 80.7245 141.182 81.7899 141.182 83.0427C141.182 84.2998 140.619 85.3524 139.422 85.3524ZM145.111 86.2899H146.406L147.736 81.564H147.834L149.163 86.2899H150.463L152.385 79.7444H151.068L149.794 84.5299H149.73L148.452 79.7444H147.135L145.848 84.5512H145.784L144.501 79.7444H143.185L145.111 86.2899ZM156.216 86.422C157.643 86.422 158.653 85.7188 158.943 84.6535L157.737 84.4362C157.507 85.0541 156.953 85.3694 156.229 85.3694C155.138 85.3694 154.405 84.662 154.371 83.4007H159.024V82.9489C159.024 80.5839 157.609 79.6592 156.126 79.6592C154.303 79.6592 153.101 81.0484 153.101 83.0597C153.101 85.0924 154.285 86.422 156.216 86.422ZM154.375 82.4461C154.426 81.5171 155.099 80.7117 156.135 80.7117C157.124 80.7117 157.771 81.4447 157.776 82.4461H154.375ZM160.438 86.2899H161.712V82.2927C161.712 81.4362 162.372 80.8183 163.276 80.8183C163.54 80.8183 163.838 80.8651 163.941 80.895V79.6762C163.813 79.6592 163.561 79.6464 163.399 79.6464C162.632 79.6464 161.976 80.081 161.738 80.7842H161.669V79.7444H160.438V86.2899ZM169.948 81.3424C169.684 80.3239 168.887 79.6592 167.472 79.6592C165.994 79.6592 164.945 80.439 164.945 81.5981C164.945 82.5271 165.508 83.145 166.735 83.4177L167.843 83.6606C168.474 83.8012 168.768 84.0825 168.768 84.4916C168.768 84.9987 168.227 85.395 167.391 85.395C166.629 85.395 166.138 85.0668 165.985 84.4234L164.754 84.6109C164.967 85.77 165.93 86.422 167.4 86.422C168.981 86.422 170.076 85.5825 170.076 84.3978C170.076 83.4731 169.488 82.9021 168.286 82.6251L167.246 82.3864C166.526 82.216 166.215 81.9731 166.219 81.5299C166.215 81.0271 166.761 80.6691 167.485 80.6691C168.278 80.6691 168.644 81.108 168.793 81.547L169.948 81.3424Z" fill="#666666"/>
<path d="M25.1186 47.9313H26.6548V43.4916H30.9801V42.1742H26.6548V39.0719H31.4325V37.7495H25.1186V47.9313ZM35.8585 48.0854C38.0112 48.0854 39.4181 46.5094 39.4181 44.1479C39.4181 41.7715 38.0112 40.1955 35.8585 40.1955C33.7058 40.1955 32.2988 41.7715 32.2988 44.1479C32.2988 46.5094 33.7058 48.0854 35.8585 48.0854ZM35.8635 46.8375C34.4565 46.8375 33.8002 45.6095 33.8002 44.1429C33.8002 42.6813 34.4565 41.4384 35.8635 41.4384C37.2605 41.4384 37.9167 42.6813 37.9167 44.1429C37.9167 45.6095 37.2605 46.8375 35.8635 46.8375ZM42.5639 37.7495H41.0774V47.9313H42.5639V37.7495ZM46.0502 37.7495H44.5637V47.9313H46.0502V37.7495ZM51.2667 48.0854C53.4194 48.0854 54.8263 46.5094 54.8263 44.1479C54.8263 41.7715 53.4194 40.1955 51.2667 40.1955C49.114 40.1955 47.707 41.7715 47.707 44.1479C47.707 46.5094 49.114 48.0854 51.2667 48.0854ZM51.2717 46.8375C49.8647 46.8375 49.2085 45.6095 49.2085 44.1429C49.2085 42.6813 49.8647 41.4384 51.2717 41.4384C52.6687 41.4384 53.3249 42.6813 53.3249 44.1429C53.3249 45.6095 52.6687 46.8375 51.2717 46.8375ZM57.9087 47.9313H59.4201L60.9712 42.4178H61.0856L62.6367 47.9313H64.1531L66.3952 40.2949H64.859L63.3725 45.878H63.2979L61.8065 40.2949H60.2702L58.7688 45.9029H58.6942L57.1978 40.2949H55.6616L57.9087 47.9313ZM70.8647 48.0854C72.5302 48.0854 73.7084 47.2651 74.0465 46.0222L72.6396 45.7686C72.3711 46.4895 71.7248 46.8574 70.8796 46.8574C69.6069 46.8574 68.7518 46.0321 68.712 44.5605H74.141V44.0335C74.141 41.2743 72.4904 40.1955 70.7603 40.1955C68.6325 40.1955 67.2305 41.8162 67.2305 44.1628C67.2305 46.5343 68.6126 48.0854 70.8647 48.0854ZM68.717 43.4469C68.7766 42.3631 69.5621 41.4235 70.7702 41.4235C71.9236 41.4235 72.6793 42.2786 72.6843 43.4469H68.717ZM75.7903 47.9313H77.2768V43.2679C77.2768 42.2686 78.0474 41.5478 79.1014 41.5478C79.4096 41.5478 79.7576 41.6024 79.8769 41.6372V40.2154C79.7278 40.1955 79.4345 40.1806 79.2456 40.1806C78.3507 40.1806 77.585 40.6877 77.3066 41.508H77.2271V40.2949H75.7903V47.9313ZM91.8784 40.9661H93.4544C93.1113 38.9824 91.416 37.6103 89.2186 37.6103C86.5836 37.6103 84.6596 39.5939 84.6596 42.8453C84.6596 46.0669 86.5289 48.0705 89.2882 48.0705C91.7591 48.0705 93.524 46.4497 93.524 43.8794V42.721H89.5218V43.9888H92.0375C92.0027 45.6294 90.9189 46.6685 89.2882 46.6685C87.4934 46.6685 86.1859 45.3112 86.1859 42.8354C86.1859 40.3695 87.5034 39.0122 89.2285 39.0122C90.5808 39.0122 91.4956 39.758 91.8784 40.9661ZM95.3548 47.9313H96.8413V43.2679C96.8413 42.2686 97.6119 41.5478 98.6658 41.5478C98.9741 41.5478 99.3221 41.6024 99.4414 41.6372V40.2154C99.2923 40.1955 98.9989 40.1806 98.81 40.1806C97.9151 40.1806 97.1495 40.6877 96.8711 41.508H96.7915V40.2949H95.3548V47.9313ZM103.671 48.0854C105.824 48.0854 107.231 46.5094 107.231 44.1479C107.231 41.7715 105.824 40.1955 103.671 40.1955C101.518 40.1955 100.111 41.7715 100.111 44.1479C100.111 46.5094 101.518 48.0854 103.671 48.0854ZM103.676 46.8375C102.269 46.8375 101.613 45.6095 101.613 44.1429C101.613 42.6813 102.269 41.4384 103.676 41.4384C105.073 41.4384 105.729 42.6813 105.729 44.1429C105.729 45.6095 105.073 46.8375 103.676 46.8375ZM110.313 47.9313H111.824L113.376 42.4178H113.49L115.041 47.9313H116.557L118.8 40.2949H117.263L115.777 45.878H115.702L114.211 40.2949H112.675L111.173 45.9029H111.099L109.602 40.2949H108.066L110.313 47.9313ZM123.775 40.2949H122.209V38.4654H120.722V40.2949H119.604V41.4881H120.722V45.9973C120.717 47.3844 121.776 48.0556 122.95 48.0307C123.422 48.0257 123.74 47.9362 123.914 47.8716L123.646 46.6436C123.546 46.6635 123.362 46.7083 123.124 46.7083C122.641 46.7083 122.209 46.5492 122.209 45.6891V41.4881H123.775V40.2949ZM127.07 43.3972C127.07 42.1791 127.84 41.4831 128.899 41.4831C129.923 41.4831 130.535 42.1344 130.535 43.253V47.9313H132.021V43.074C132.021 41.1699 130.977 40.1955 129.406 40.1955C128.218 40.1955 127.502 40.7125 127.144 41.5378H127.05V37.7495H125.583V47.9313H127.07V43.3972Z" fill="#313131"/>
<path d="M231.803 35.7166H221.802C221.234 35.7166 220.689 35.9424 220.287 36.3443C219.885 36.7462 219.659 37.2913 219.659 37.8596V47.8603C219.659 48.4286 219.885 48.9737 220.287 49.3756C220.689 49.7775 221.234 50.0033 221.802 50.0033H231.803C232.371 50.0033 232.916 49.7775 233.318 49.3756C233.72 48.9737 233.946 48.4286 233.946 47.8603V37.8596C233.946 37.2913 233.72 36.7462 233.318 36.3443C232.916 35.9424 232.371 35.7166 231.803 35.7166ZM231.803 37.1453C231.992 37.1453 232.174 37.2205 232.308 37.3545C232.442 37.4885 232.517 37.6702 232.517 37.8596V42.1456H227.517V37.1453H231.803ZM221.088 37.8596C221.088 37.6702 221.163 37.4885 221.297 37.3545C221.431 37.2205 221.613 37.1453 221.802 37.1453H226.088V42.1456H221.088V37.8596ZM221.802 48.5746C221.613 48.5746 221.431 48.4994 221.297 48.3654C221.163 48.2314 221.088 48.0497 221.088 47.8603V43.5743H226.088V48.5746H221.802ZM232.517 47.8603C232.517 48.0497 232.442 48.2314 232.308 48.3654C232.174 48.4994 231.992 48.5746 231.803 48.5746H227.517V43.5743H232.517V47.8603Z" fill="#999999"/>
<circle cx="226.801" cy="42.8598" r="16.519" stroke="#EEF0F2" stroke-width="0.892917"/>
<path d="M266.776 36.4302C266.776 36.0356 266.469 35.7158 266.089 35.7158C265.71 35.7158 265.403 36.0356 265.403 36.4302V43.7063L264.102 42.354C263.834 42.0751 263.399 42.0751 263.131 42.354C262.863 42.633 262.863 43.0853 263.131 43.3643L265.604 45.9359C265.677 46.012 265.763 46.0674 265.854 46.1019C265.927 46.1299 266.007 46.1451 266.089 46.1451C266.197 46.1451 266.298 46.1195 266.389 46.074C266.43 46.053 266.47 46.0273 266.508 45.9971C266.534 45.9764 266.558 45.954 266.581 45.9298L269.048 43.3643C269.316 43.0853 269.316 42.633 269.048 42.354C268.78 42.0751 268.345 42.0751 268.076 42.354L266.776 43.7061V36.4302Z" fill="#999999"/>
<path d="M260.526 45.3593C260.905 45.3593 261.213 45.6791 261.213 46.0737V48.0024C261.213 48.1539 261.271 48.2993 261.374 48.4065C261.477 48.5136 261.616 48.5738 261.762 48.5738H270.417C270.562 48.5738 270.702 48.5136 270.805 48.4065C270.908 48.2993 270.966 48.1539 270.966 48.0024V46.0737C270.966 45.6791 271.274 45.3593 271.653 45.3593C272.032 45.3593 272.34 45.6791 272.34 46.0737V48.0024C272.34 48.5328 272.137 49.0416 271.777 49.4167C271.416 49.7918 270.927 50.0025 270.417 50.0025H261.762C261.252 50.0025 260.763 49.7918 260.402 49.4167C260.042 49.0416 259.839 48.5328 259.839 48.0024V46.0737C259.839 45.6791 260.147 45.3593 260.526 45.3593Z" fill="#999999"/>
<circle cx="266.09" cy="42.859" r="16.519" stroke="#EEF0F2" stroke-width="0.892917"/>
<path d="M56.2548 216.532C56.2548 214.806 57.654 213.407 59.38 213.407C61.106 213.407 62.5052 214.806 62.5052 216.532V291.091H56.2548V216.532Z" fill="#0AC05E"/>
<path d="M263.411 145.098C263.411 143.372 264.81 141.973 266.536 141.973C268.262 141.973 269.661 143.372 269.661 145.098V291.09H263.411V145.098Z" fill="#0AC05E"/>
<path d="M237.516 222.784C237.516 221.058 238.916 219.658 240.642 219.658C242.368 219.658 243.767 221.058 243.767 222.784V291.092H237.516V222.784Z" fill="#0AC05E"/>
<path d="M211.622 166.529C211.622 164.803 213.021 163.403 214.747 163.403C216.473 163.403 217.872 164.803 217.872 166.529V291.091H211.622V166.529Z" fill="#0AC05E"/>
<path d="M185.727 181.709C185.727 179.983 187.127 178.584 188.853 178.584C190.579 178.584 191.978 179.983 191.978 181.709V291.092H185.727V181.709Z" fill="#0AC05E"/>
<path d="M159.833 216.532C159.833 214.806 161.233 213.407 162.959 213.407C164.685 213.407 166.084 214.806 166.084 216.532V291.09H159.833V216.532Z" fill="#0AC05E"/>
<path d="M133.939 224.569C133.939 222.843 135.338 221.444 137.064 221.444C138.79 221.444 140.189 222.843 140.189 224.569V291.092H133.939V224.569Z" fill="#0AC05E"/>
<path d="M108.043 143.313C108.043 141.587 109.443 140.188 111.169 140.188C112.895 140.188 114.294 141.587 114.294 143.313V291.091H108.043V143.313Z" fill="#0AC05E"/>
<path d="M82.1532 247.784C82.1532 246.058 83.5524 244.658 85.2784 244.658C87.0044 244.658 88.4036 246.058 88.4036 247.784V291.09H82.1532V247.784Z" fill="#0AC05E"/>
<defs>
<filter id="filter0_b_13_3570" x="-10" y="-10" width="326.271" height="359.309" filterUnits="userSpaceOnUse" color-interpolation-filters="sRGB">
<feFlood flood-opacity="0" result="BackgroundImageFix"/>
<feGaussianBlur in="BackgroundImage" stdDeviation="5"/>
<feComposite in2="SourceAlpha" operator="in" result="effect1_backgroundBlur_13_3570"/>
<feBlend mode="normal" in="SourceGraphic" in2="effect1_backgroundBlur_13_3570" result="shape"/>
</filter>
</defs>
</svg>
