<svg width="188" height="218" viewBox="0 0 188 218" fill="none" xmlns="http://www.w3.org/2000/svg">
<g filter="url(#filter0_b_13_3603)">
<rect width="188" height="218" fill="white" fill-opacity="0.6"/>
</g>
<rect x="17.0007" y="107.87" width="155" height="95" rx="8" fill="#FBFBFB"/>
<path d="M53.6756 128.817L57.3695 135.002V138.999H58.9007V135.002L62.5946 128.817H60.8496L58.1898 133.446H58.0804L55.4206 128.817H53.6756ZM65.8982 139.153C68.0509 139.153 69.4579 137.577 69.4579 135.216C69.4579 132.839 68.0509 131.263 65.8982 131.263C63.7455 131.263 62.3386 132.839 62.3386 135.216C62.3386 137.577 63.7455 139.153 65.8982 139.153ZM65.9032 137.906C64.4962 137.906 63.84 136.678 63.84 135.211C63.84 133.749 64.4962 132.506 65.9032 132.506C67.3002 132.506 67.9565 133.749 67.9565 135.211C67.9565 136.678 67.3002 137.906 65.9032 137.906ZM75.9545 135.832C75.9595 137.13 74.995 137.746 74.1598 137.746C73.24 137.746 72.6037 137.08 72.6037 136.041V131.363H71.1171V136.22C71.1171 138.114 72.1562 139.099 73.6228 139.099C74.7713 139.099 75.5518 138.492 75.9048 137.677H75.9843V138.999H77.446V131.363H75.9545V135.832ZM79.4433 138.999H80.9298V134.336C80.9298 133.337 81.7004 132.616 82.7544 132.616C83.0626 132.616 83.4107 132.67 83.53 132.705V131.283C83.3808 131.263 83.0875 131.249 82.8986 131.249C82.0037 131.249 81.2381 131.756 80.9597 132.576H80.8801V131.363H79.4433V138.999ZM95.5314 132.034H97.1074C96.7643 130.05 95.069 128.678 92.8716 128.678C90.2366 128.678 88.3126 130.662 88.3126 133.913C88.3126 137.135 90.182 139.138 92.9412 139.138C95.4121 139.138 97.177 137.518 97.177 134.947V133.789H93.1749V135.057H95.6905C95.6557 136.697 94.5719 137.736 92.9412 137.736C91.1464 137.736 89.8389 136.379 89.8389 133.903C89.8389 131.437 91.1564 130.08 92.8815 130.08C94.2338 130.08 95.1486 130.826 95.5314 132.034ZM99.0078 138.999H100.494V134.336C100.494 133.337 101.265 132.616 102.319 132.616C102.627 132.616 102.975 132.67 103.094 132.705V131.283C102.945 131.263 102.652 131.249 102.463 131.249C101.568 131.249 100.803 131.756 100.524 132.576H100.445V131.363H99.0078V138.999ZM107.324 139.153C109.477 139.153 110.884 137.577 110.884 135.216C110.884 132.839 109.477 131.263 107.324 131.263C105.171 131.263 103.764 132.839 103.764 135.216C103.764 137.577 105.171 139.153 107.324 139.153ZM107.329 137.906C105.922 137.906 105.266 136.678 105.266 135.211C105.266 133.749 105.922 132.506 107.329 132.506C108.726 132.506 109.382 133.749 109.382 135.211C109.382 136.678 108.726 137.906 107.329 137.906ZM113.966 138.999H115.477L117.029 133.486H117.143L118.694 138.999H120.21L122.453 131.363H120.916L119.43 136.946H119.355L117.864 131.363H116.328L114.826 136.971H114.752L113.255 131.363H111.719L113.966 138.999ZM127.428 131.363H125.862V129.533H124.375V131.363H123.257V132.556H124.375V137.065C124.37 138.452 125.429 139.124 126.603 139.099C127.075 139.094 127.393 139.004 127.567 138.94L127.299 137.712C127.199 137.732 127.015 137.776 126.777 137.776C126.294 137.776 125.862 137.617 125.862 136.757V132.556H127.428V131.363ZM130.723 134.465C130.723 133.247 131.493 132.551 132.552 132.551C133.576 132.551 134.188 133.202 134.188 134.321V138.999H135.674V134.142C135.674 132.238 134.63 131.263 133.059 131.263C131.871 131.263 131.155 131.781 130.797 132.606H130.703V128.817H129.236V138.999H130.723V134.465Z" fill="#404040"/>
<path d="M59.1853 176.091C64.0859 176.091 67.5909 173.395 67.5802 169.667C67.5909 166.95 65.865 165.011 62.6583 164.606V164.436C65.098 163.999 66.7812 162.273 66.7706 159.823C66.7812 156.382 63.7663 153.676 59.2493 153.676C54.7748 153.676 51.4083 156.296 51.3444 160.068H55.7656C55.8189 158.406 57.3423 157.33 59.2279 157.33C61.0923 157.33 62.3387 158.459 62.3281 160.1C62.3387 161.815 60.8792 162.976 58.7805 162.976H56.7457V166.364H58.7805C61.2521 166.364 62.7968 167.6 62.7862 169.358C62.7968 171.094 61.3054 172.287 59.196 172.287C57.1612 172.287 55.6377 171.222 55.5525 169.624H50.9076C50.9822 173.438 54.3913 176.091 59.1853 176.091ZM75.256 172.809H71.506L71.4527 174.002C71.3249 176.9 70.4939 179.872 70.185 181.119H73.1253C73.6367 179.83 74.8512 176.804 75.1388 173.981L75.256 172.809ZM87.0094 176.272C92.4959 176.272 95.8091 172.096 95.8197 164.904C95.8304 157.767 92.4746 153.676 87.0094 153.676C81.5335 153.676 78.2097 157.756 78.199 164.904C78.1777 172.074 81.5122 176.261 87.0094 176.272ZM87.0094 172.447C84.5058 172.447 82.8865 169.933 82.8972 164.904C82.9078 159.951 84.5165 157.458 87.0094 157.458C89.4916 157.458 91.1109 159.951 91.1109 164.904C91.1216 169.933 89.5023 172.447 87.0094 172.447ZM107.664 176.272C113.15 176.272 116.463 172.096 116.474 164.904C116.485 157.767 113.129 153.676 107.664 153.676C102.188 153.676 98.864 157.756 98.8533 164.904C98.832 172.074 102.167 176.261 107.664 176.272ZM107.664 172.447C105.16 172.447 103.541 169.933 103.551 164.904C103.562 159.951 105.171 157.458 107.664 157.458C110.146 157.458 111.765 159.951 111.765 164.904C111.776 169.933 110.157 172.447 107.664 172.447ZM128.318 176.272C133.804 176.272 137.118 172.096 137.128 164.904C137.139 157.767 133.783 153.676 128.318 153.676C122.842 153.676 119.518 157.756 119.508 164.904C119.486 172.074 122.821 176.261 128.318 176.272ZM128.318 172.447C125.814 172.447 124.195 169.933 124.206 164.904C124.216 159.951 125.825 157.458 128.318 157.458C130.8 157.458 132.42 159.951 132.42 164.904C132.43 169.933 130.811 172.447 128.318 172.447Z" fill="#FF4D4A"/>
<path opacity="0.96" d="M43.4959 51L44.6962 47.4134H50.165L51.3723 51H54.1848L49.057 36.4545H45.8042L40.6834 51H43.4959ZM45.4064 45.2969L47.3738 39.4375H47.4874L49.4547 45.2969H45.4064ZM55.987 51H58.5581V44.3665C58.5581 43.0241 59.4529 42.1151 60.5609 42.1151C61.6475 42.1151 62.3933 42.8466 62.3933 43.9688V51H64.9146V44.196C64.9146 42.9673 65.6461 42.1151 66.889 42.1151C67.926 42.1151 68.7498 42.7259 68.7498 44.0753V51H71.3279V43.6776C71.3279 41.2415 69.9217 39.9489 67.9189 39.9489C66.3351 39.9489 65.1277 40.7301 64.6447 41.9446H64.5311C64.112 40.7088 63.0538 39.9489 61.5836 39.9489C60.1206 39.9489 59.0268 40.7017 58.5723 41.9446H58.4444V40.0909H55.987V51ZM77.0755 51.2202C78.7871 51.2202 79.8098 50.4176 80.2786 49.5014H80.3638V51H82.8354V43.6989C82.8354 40.8153 80.4846 39.9489 78.4036 39.9489C76.1096 39.9489 74.3482 40.9716 73.78 42.9602L76.1806 43.3011C76.4363 42.5554 77.1607 41.9162 78.4178 41.9162C79.611 41.9162 80.2644 42.527 80.2644 43.5994V43.642C80.2644 44.3807 79.4902 44.4162 77.5655 44.6222C75.449 44.8494 73.4249 45.4815 73.4249 47.9389C73.4249 50.0838 74.9945 51.2202 77.0755 51.2202ZM77.7431 49.331C76.6706 49.331 75.9036 48.8409 75.9036 47.8963C75.9036 46.9091 76.763 46.4972 77.9135 46.3338C78.5882 46.2415 79.9377 46.071 80.2715 45.8011V47.0866C80.2715 48.3011 79.2914 49.331 77.7431 49.331ZM87.9917 44.608C87.9917 43.0312 88.9434 42.1222 90.2999 42.1222C91.628 42.1222 92.4235 42.9957 92.4235 44.4517V51H94.9945V44.054C95.0016 41.4403 93.5101 39.9489 91.2587 39.9489C89.6252 39.9489 88.503 40.7301 88.0059 41.9446H87.878V40.0909H85.4206V51H87.9917V44.608ZM101.656 51.1918C103.531 51.1918 104.377 50.0767 104.781 49.2812H104.938V51H107.466V36.4545H104.888V41.8949H104.781C104.391 41.1065 103.588 39.9489 101.664 39.9489C99.1422 39.9489 97.1607 41.9233 97.1607 45.5597C97.1607 49.1534 99.0854 51.1918 101.656 51.1918ZM102.374 49.0824C100.676 49.0824 99.7814 47.5909 99.7814 45.5455C99.7814 43.5142 100.662 42.0582 102.374 42.0582C104.029 42.0582 104.938 43.429 104.938 45.5455C104.938 47.6619 104.014 49.0824 102.374 49.0824ZM113.345 51.2202C115.057 51.2202 116.079 50.4176 116.548 49.5014H116.633V51H119.105V43.6989C119.105 40.8153 116.754 39.9489 114.673 39.9489C112.379 39.9489 110.618 40.9716 110.05 42.9602L112.45 43.3011C112.706 42.5554 113.43 41.9162 114.687 41.9162C115.881 41.9162 116.534 42.527 116.534 43.5994V43.642C116.534 44.3807 115.76 44.4162 113.835 44.6222C111.719 44.8494 109.694 45.4815 109.694 47.9389C109.694 50.0838 111.264 51.2202 113.345 51.2202ZM114.013 49.331C112.94 49.331 112.173 48.8409 112.173 47.8963C112.173 46.9091 113.032 46.4972 114.183 46.3338C114.858 46.2415 116.207 46.071 116.541 45.8011V47.0866C116.541 48.3011 115.561 49.331 114.013 49.331ZM126.765 36.4545V51H129.293V40.9858H129.428L133.448 50.9574H135.337L139.357 41.0071H139.492V51H142.02V36.4545H138.796L134.478 46.9943H134.307L129.989 36.4545H126.765ZM146.36 51.1562C147.198 51.1562 147.915 50.4602 147.922 49.5938C147.915 48.7415 147.198 48.0455 146.36 48.0455C145.493 48.0455 144.79 48.7415 144.797 49.5938C144.79 50.4602 145.493 51.1562 146.36 51.1562ZM78.3343 76C82.7662 76 85.394 73.2585 85.394 68.7131C85.394 64.1818 82.7662 61.4545 78.4338 61.4545H73.4054V76H78.3343ZM76.0403 73.7202V63.7344H78.2846C81.2392 63.7344 82.7804 65.3821 82.7804 68.7131C82.7804 72.0582 81.2392 73.7202 78.2065 73.7202H76.0403ZM90.9231 76.2202C92.6348 76.2202 93.6575 75.4176 94.1262 74.5014H94.2115V76H96.6831V68.6989C96.6831 65.8153 94.3322 64.9489 92.2512 64.9489C89.9572 64.9489 88.1958 65.9716 87.6277 67.9602L90.0282 68.3011C90.2839 67.5554 91.0083 66.9162 92.2654 66.9162C93.4586 66.9162 94.112 67.527 94.112 68.5994V68.642C94.112 69.3807 93.3379 69.4162 91.4132 69.6222C89.2967 69.8494 87.2725 70.4815 87.2725 72.9389C87.2725 75.0838 88.8422 76.2202 90.9231 76.2202ZM91.5907 74.331C90.5183 74.331 89.7512 73.8409 89.7512 72.8963C89.7512 71.9091 90.6106 71.4972 91.7612 71.3338C92.4359 71.2415 93.7853 71.071 94.1191 70.8011V72.0866C94.1191 73.3011 93.139 74.331 91.5907 74.331ZM104.716 65.0909H102.564V62.4773H99.9927V65.0909H98.4444V67.0795H99.9927V73.1449C99.9785 75.1974 101.47 76.206 103.402 76.1491C104.133 76.1278 104.638 75.9858 104.915 75.8935L104.481 73.8835C104.339 73.919 104.048 73.983 103.729 73.983C103.082 73.983 102.564 73.7557 102.564 72.7188V67.0795H104.716V65.0909ZM110.005 76.2202C111.717 76.2202 112.74 75.4176 113.208 74.5014H113.294V76H115.765V68.6989C115.765 65.8153 113.414 64.9489 111.333 64.9489C109.039 64.9489 107.278 65.9716 106.71 67.9602L109.11 68.3011C109.366 67.5554 110.09 66.9162 111.347 66.9162C112.541 66.9162 113.194 67.527 113.194 68.5994V68.642C113.194 69.3807 112.42 69.4162 110.495 69.6222C108.379 69.8494 106.355 70.4815 106.355 72.9389C106.355 75.0838 107.924 76.2202 110.005 76.2202ZM110.673 74.331C109.6 74.331 108.833 73.8409 108.833 72.8963C108.833 71.9091 109.693 71.4972 110.843 71.3338C111.518 71.2415 112.867 71.071 113.201 70.8011V72.0866C113.201 73.3011 112.221 74.331 110.673 74.331Z" fill="#313131"/>
<defs>
<filter id="filter0_b_13_3603" x="-10" y="-10" width="208" height="238" filterUnits="userSpaceOnUse" color-interpolation-filters="sRGB">
<feFlood flood-opacity="0" result="BackgroundImageFix"/>
<feGaussianBlur in="BackgroundImage" stdDeviation="5"/>
<feComposite in2="SourceAlpha" operator="in" result="effect1_backgroundBlur_13_3603"/>
<feBlend mode="normal" in="SourceGraphic" in2="effect1_backgroundBlur_13_3603" result="shape"/>
</filter>
</defs>
</svg>
