<svg width="383" height="359" viewBox="0 0 383 359" fill="none" xmlns="http://www.w3.org/2000/svg">
<g filter="url(#filter0_ddddd_13_3725)">
<rect x="29" y="1" width="325.402" height="285" fill="white"/>
<rect x="29.3012" y="1.30123" width="324.8" height="284.398" stroke="#F1F1F1" stroke-width="0.602457"/>
</g>
<path d="M91.1191 56.8882C91.1191 55.1061 91.5297 53.5075 92.3508 52.0924C93.1894 50.6772 94.3163 49.5765 95.7315 48.7903C97.1642 47.9866 98.7278 47.5848 100.423 47.5848C102.362 47.5848 104.083 48.0652 105.585 49.0261C107.105 49.9696 108.206 51.3149 108.887 53.062H105.297C104.825 52.1011 104.17 51.3848 103.332 50.913C102.493 50.4413 101.523 50.2055 100.423 50.2055C99.217 50.2055 98.1425 50.4763 97.1991 51.0179C96.2557 51.5595 95.5131 52.337 94.9715 53.3503C94.4474 54.3636 94.1853 55.5429 94.1853 56.8882C94.1853 58.2335 94.4474 59.4128 94.9715 60.4261C95.5131 61.4395 96.2557 62.2257 97.1991 62.7848C98.1425 63.3264 99.217 63.5972 100.423 63.5972C101.523 63.5972 102.493 63.3613 103.332 62.8896C104.17 62.4179 104.825 61.7016 105.297 60.7406H108.887C108.206 62.4878 107.105 63.833 105.585 64.7765C104.083 65.7199 102.362 66.1917 100.423 66.1917C98.7104 66.1917 97.1467 65.7986 95.7315 65.0124C94.3163 64.2087 93.1894 63.0993 92.3508 61.6841C91.5297 60.2689 91.1191 58.6703 91.1191 56.8882ZM115.11 53.691C115.547 52.9572 116.123 52.3894 116.84 51.9875C117.573 51.5682 118.438 51.3586 119.434 51.3586V54.451H118.674C117.503 54.451 116.612 54.748 116.001 55.342C115.407 55.936 115.11 56.9668 115.11 58.4344V66.0344H112.122V51.5944H115.11V53.691ZM135.153 58.4606C135.153 59.0022 135.118 59.4914 135.048 59.9282H124.015C124.102 61.0813 124.53 62.0073 125.299 62.7061C126.068 63.405 127.011 63.7544 128.129 63.7544C129.737 63.7544 130.872 63.0818 131.536 61.7365H134.76C134.323 63.0643 133.528 64.1563 132.375 65.0124C131.239 65.851 129.824 66.2703 128.129 66.2703C126.749 66.2703 125.508 65.9645 124.408 65.353C123.325 64.7241 122.468 63.8505 121.84 62.7324C121.228 61.5967 120.922 60.2864 120.922 58.8013C120.922 57.3163 121.219 56.0147 121.813 54.8965C122.425 53.7609 123.272 52.8873 124.355 52.2758C125.456 51.6643 126.714 51.3586 128.129 51.3586C129.492 51.3586 130.706 51.6556 131.772 52.2496C132.838 52.8436 133.668 53.6822 134.262 54.7655C134.856 55.8312 135.153 57.0629 135.153 58.4606ZM132.034 57.5172C132.017 56.4165 131.623 55.5342 130.855 54.8703C130.086 54.2064 129.134 53.8744 127.998 53.8744C126.967 53.8744 126.085 54.2064 125.351 54.8703C124.617 55.5167 124.181 56.399 124.041 57.5172H132.034ZM136.835 58.7489C136.835 57.2988 137.132 56.0147 137.726 54.8965C138.337 53.7783 139.158 52.9135 140.189 52.302C141.238 51.673 142.391 51.3586 143.649 51.3586C144.784 51.3586 145.771 51.5857 146.61 52.0399C147.466 52.4767 148.147 53.0271 148.654 53.691V51.5944H151.668V66.0344H148.654V63.8855C148.147 64.5668 147.457 65.1347 146.584 65.5889C145.71 66.0432 144.714 66.2703 143.596 66.2703C142.356 66.2703 141.22 65.9558 140.189 65.3268C139.158 64.6804 138.337 63.7894 137.726 62.6537C137.132 61.5006 136.835 60.199 136.835 58.7489ZM148.654 58.8013C148.654 57.8055 148.444 56.9406 148.025 56.2068C147.623 55.473 147.09 54.914 146.427 54.5296C145.763 54.1452 145.046 53.953 144.278 53.953C143.509 53.953 142.792 54.1452 142.129 54.5296C141.465 54.8965 140.923 55.4468 140.504 56.1806C140.102 56.897 139.901 57.753 139.901 58.7489C139.901 59.7448 140.102 60.6183 140.504 61.3696C140.923 62.1209 141.465 62.6974 142.129 63.0993C142.81 63.4836 143.526 63.6758 144.278 63.6758C145.046 63.6758 145.763 63.4836 146.427 63.0993C147.09 62.7149 147.623 62.1558 148.025 61.422C148.444 60.6707 148.654 59.7972 148.654 58.8013ZM158.815 54.0317V62.0248C158.815 62.5664 158.938 62.9595 159.182 63.2041C159.444 63.4312 159.881 63.5448 160.493 63.5448H162.327V66.0344H159.969C158.623 66.0344 157.592 65.7199 156.876 65.091C156.16 64.462 155.802 63.4399 155.802 62.0248V54.0317H154.098V51.5944H155.802V48.0041H158.815V51.5944H162.327V54.0317H158.815ZM178.053 58.4606C178.053 59.0022 178.018 59.4914 177.948 59.9282H166.915C167.003 61.0813 167.431 62.0073 168.199 62.7061C168.968 63.405 169.911 63.7544 171.03 63.7544C172.637 63.7544 173.773 63.0818 174.437 61.7365H177.66C177.223 63.0643 176.428 64.1563 175.275 65.0124C174.14 65.851 172.724 66.2703 171.03 66.2703C169.649 66.2703 168.409 65.9645 167.308 65.353C166.225 64.7241 165.369 63.8505 164.74 62.7324C164.129 61.5967 163.823 60.2864 163.823 58.8013C163.823 57.3163 164.12 56.0147 164.714 54.8965C165.325 53.7609 166.173 52.8873 167.256 52.2758C168.357 51.6643 169.614 51.3586 171.03 51.3586C172.392 51.3586 173.607 51.6556 174.672 52.2496C175.738 52.8436 176.568 53.6822 177.162 54.7655C177.756 55.8312 178.053 57.0629 178.053 58.4606ZM174.934 57.5172C174.917 56.4165 174.524 55.5342 173.755 54.8703C172.986 54.2064 172.034 53.8744 170.899 53.8744C169.868 53.8744 168.986 54.2064 168.252 54.8703C167.518 55.5167 167.081 56.399 166.941 57.5172H174.934ZM198.257 62.313H190.631L189.321 66.0344H186.202L192.728 47.7944H196.187L202.713 66.0344H199.568L198.257 62.313ZM197.419 59.8758L194.457 51.411L191.47 59.8758H197.419ZM204.292 58.8013C204.292 57.3163 204.589 56.0147 205.183 54.8965C205.794 53.7609 206.633 52.8873 207.699 52.2758C208.765 51.6643 209.988 51.3586 211.368 51.3586C213.115 51.3586 214.556 51.7779 215.692 52.6165C216.845 53.4376 217.623 54.617 218.024 56.1544H214.801C214.539 55.4381 214.12 54.879 213.543 54.4772C212.966 54.0753 212.241 53.8744 211.368 53.8744C210.145 53.8744 209.166 54.3112 208.433 55.1848C207.716 56.0409 207.358 57.2464 207.358 58.8013C207.358 60.3563 207.716 61.5705 208.433 62.4441C209.166 63.3176 210.145 63.7544 211.368 63.7544C213.097 63.7544 214.242 62.9944 214.801 61.4744H218.024C217.605 62.942 216.819 64.1126 215.666 64.9861C214.513 65.8422 213.08 66.2703 211.368 66.2703C209.988 66.2703 208.765 65.9645 207.699 65.353C206.633 64.7241 205.794 63.8505 205.183 62.7324C204.589 61.5967 204.292 60.2864 204.292 58.8013ZM219.744 58.8013C219.744 57.3163 220.041 56.0147 220.635 54.8965C221.246 53.7609 222.085 52.8873 223.151 52.2758C224.216 51.6643 225.439 51.3586 226.82 51.3586C228.567 51.3586 230.008 51.7779 231.144 52.6165C232.297 53.4376 233.074 54.617 233.476 56.1544H230.253C229.991 55.4381 229.571 54.879 228.995 54.4772C228.418 54.0753 227.693 53.8744 226.82 53.8744C225.597 53.8744 224.618 54.3112 223.884 55.1848C223.168 56.0409 222.81 57.2464 222.81 58.8013C222.81 60.3563 223.168 61.5705 223.884 62.4441C224.618 63.3176 225.597 63.7544 226.82 63.7544C228.549 63.7544 229.694 62.9944 230.253 61.4744H233.476C233.057 62.942 232.271 64.1126 231.118 64.9861C229.964 65.8422 228.532 66.2703 226.82 66.2703C225.439 66.2703 224.216 65.9645 223.151 65.353C222.085 64.7241 221.246 63.8505 220.635 62.7324C220.041 61.5967 219.744 60.2864 219.744 58.8013ZM242.455 66.2703C241.092 66.2703 239.86 65.9645 238.76 65.353C237.659 64.7241 236.794 63.8505 236.165 62.7324C235.536 61.5967 235.222 60.2864 235.222 58.8013C235.222 57.3337 235.545 56.0321 236.191 54.8965C236.838 53.7609 237.72 52.8873 238.838 52.2758C239.957 51.6643 241.206 51.3586 242.586 51.3586C243.966 51.3586 245.215 51.6643 246.334 52.2758C247.452 52.8873 248.334 53.7609 248.98 54.8965C249.627 56.0321 249.95 57.3337 249.95 58.8013C249.95 60.2689 249.618 61.5705 248.954 62.7061C248.29 63.8418 247.382 64.7241 246.229 65.353C245.093 65.9645 243.835 66.2703 242.455 66.2703ZM242.455 63.6758C243.224 63.6758 243.94 63.4924 244.604 63.1255C245.285 62.7586 245.836 62.2082 246.255 61.4744C246.674 60.7406 246.884 59.8496 246.884 58.8013C246.884 57.753 246.683 56.8707 246.281 56.1544C245.879 55.4206 245.346 54.8703 244.683 54.5034C244.019 54.1365 243.302 53.953 242.534 53.953C241.765 53.953 241.048 54.1365 240.385 54.5034C239.738 54.8703 239.223 55.4206 238.838 56.1544C238.454 56.8707 238.262 57.753 238.262 58.8013C238.262 60.3563 238.655 61.5618 239.441 62.4179C240.245 63.2565 241.249 63.6758 242.455 63.6758ZM265.719 51.5944V66.0344H262.731V64.331C262.259 64.925 261.639 65.3967 260.87 65.7461C260.119 66.0781 259.315 66.2441 258.459 66.2441C257.324 66.2441 256.302 66.0082 255.393 65.5365C254.502 65.0648 253.795 64.3659 253.27 63.4399C252.764 62.514 252.51 61.3958 252.51 60.0855V51.5944H255.472V59.6399C255.472 60.9328 255.795 61.9287 256.441 62.6275C257.088 63.3089 257.97 63.6496 259.088 63.6496C260.206 63.6496 261.089 63.3089 261.735 62.6275C262.399 61.9287 262.731 60.9328 262.731 59.6399V51.5944H265.719ZM276.684 51.3586C277.82 51.3586 278.833 51.5944 279.724 52.0661C280.632 52.5379 281.34 53.2367 281.847 54.1627C282.353 55.0887 282.607 56.2068 282.607 57.5172V66.0344H279.645V57.9627C279.645 56.6698 279.322 55.6827 278.676 55.0013C278.029 54.3025 277.147 53.953 276.029 53.953C274.911 53.953 274.02 54.3025 273.356 55.0013C272.709 55.6827 272.386 56.6698 272.386 57.9627V66.0344H269.398V51.5944H272.386V53.2455C272.875 52.6514 273.495 52.1884 274.247 51.8565C275.015 51.5245 275.828 51.3586 276.684 51.3586ZM289.641 54.0317V62.0248C289.641 62.5664 289.763 62.9595 290.008 63.2041C290.27 63.4312 290.707 63.5448 291.318 63.5448H293.153V66.0344H290.794C289.449 66.0344 288.418 65.7199 287.702 65.091C286.985 64.462 286.627 63.4399 286.627 62.0248V54.0317H284.924V51.5944H286.627V48.0041H289.641V51.5944H293.153V54.0317H289.641Z" fill="#222831"/>
<rect x="66.1265" y="98.1838" width="252.241" height="10.9195" rx="5.45977" fill="#F1F1F1"/>
<rect x="78.1379" y="124.391" width="228.218" height="10.9195" rx="5.45977" fill="#F1F1F1"/>
<rect x="81.4138" y="150.598" width="221.667" height="10.9195" rx="5.45977" fill="#F1F1F1"/>
<rect x="78.1379" y="176.805" width="228.218" height="10.9195" rx="5.45977" fill="#F1F1F1"/>
<g filter="url(#filter1_dddddd_13_3725)">
<path d="M146.931 215.023H238.505V249.965H146.931V215.023Z" fill="#0AC05E"/>
</g>
<path d="M175.722 236.738C175.223 236.738 174.775 236.652 174.378 236.478C173.987 236.297 173.68 236.051 173.456 235.741C173.232 235.422 173.116 235.057 173.109 234.645H174.161C174.197 235 174.341 235.3 174.594 235.545C174.855 235.784 175.231 235.903 175.722 235.903C176.192 235.903 176.561 235.788 176.828 235.556C177.103 235.318 177.24 235.014 177.24 234.645C177.24 234.356 177.161 234.121 177.002 233.94C176.843 233.76 176.644 233.622 176.405 233.528C176.167 233.434 175.845 233.333 175.44 233.225C174.941 233.095 174.54 232.964 174.237 232.834C173.94 232.704 173.684 232.502 173.467 232.227C173.257 231.945 173.152 231.569 173.152 231.099C173.152 230.687 173.257 230.322 173.467 230.004C173.676 229.686 173.969 229.44 174.345 229.267C174.728 229.093 175.166 229.006 175.657 229.006C176.366 229.006 176.944 229.183 177.392 229.538C177.848 229.892 178.104 230.362 178.162 230.947H177.078C177.042 230.658 176.89 230.405 176.622 230.188C176.355 229.964 176.001 229.852 175.56 229.852C175.147 229.852 174.811 229.961 174.551 230.178C174.291 230.387 174.161 230.684 174.161 231.067C174.161 231.341 174.237 231.566 174.388 231.739C174.547 231.913 174.739 232.046 174.963 232.14C175.194 232.227 175.516 232.328 175.928 232.444C176.427 232.581 176.828 232.719 177.132 232.856C177.436 232.986 177.696 233.192 177.913 233.474C178.13 233.749 178.238 234.125 178.238 234.602C178.238 234.971 178.14 235.318 177.945 235.643C177.75 235.968 177.461 236.232 177.078 236.435C176.695 236.637 176.243 236.738 175.722 236.738ZM180.2 229.755C180.012 229.755 179.853 229.69 179.723 229.559C179.593 229.429 179.528 229.27 179.528 229.082C179.528 228.894 179.593 228.735 179.723 228.605C179.853 228.475 180.012 228.41 180.2 228.41C180.381 228.41 180.533 228.475 180.655 228.605C180.786 228.735 180.851 228.894 180.851 229.082C180.851 229.27 180.786 229.429 180.655 229.559C180.533 229.69 180.381 229.755 180.2 229.755ZM180.677 230.72V236.662H179.69V230.72H180.677ZM184.81 230.622C185.323 230.622 185.771 230.734 186.154 230.958C186.545 231.182 186.834 231.464 187.022 231.804V230.72H188.02V236.792C188.02 237.335 187.904 237.815 187.673 238.235C187.441 238.661 187.109 238.994 186.675 239.232C186.248 239.471 185.75 239.59 185.178 239.59C184.398 239.59 183.747 239.406 183.227 239.037C182.706 238.669 182.399 238.166 182.305 237.53H183.281C183.389 237.891 183.613 238.181 183.953 238.397C184.293 238.622 184.701 238.734 185.178 238.734C185.721 238.734 186.162 238.564 186.501 238.224C186.848 237.884 187.022 237.407 187.022 236.792V235.545C186.827 235.892 186.538 236.182 186.154 236.413C185.771 236.644 185.323 236.76 184.81 236.76C184.282 236.76 183.801 236.63 183.367 236.37C182.941 236.109 182.605 235.744 182.359 235.274C182.113 234.804 181.99 234.269 181.99 233.669C181.99 233.062 182.113 232.531 182.359 232.075C182.605 231.613 182.941 231.255 183.367 231.002C183.801 230.749 184.282 230.622 184.81 230.622ZM187.022 233.68C187.022 233.232 186.932 232.842 186.751 232.509C186.57 232.176 186.324 231.923 186.013 231.75C185.71 231.569 185.374 231.479 185.005 231.479C184.636 231.479 184.3 231.566 183.996 231.739C183.693 231.913 183.451 232.166 183.27 232.498C183.089 232.831 182.999 233.221 182.999 233.669C182.999 234.125 183.089 234.522 183.27 234.862C183.451 235.195 183.693 235.451 183.996 235.632C184.3 235.806 184.636 235.892 185.005 235.892C185.374 235.892 185.71 235.806 186.013 235.632C186.324 235.451 186.57 235.195 186.751 234.862C186.932 234.522 187.022 234.128 187.022 233.68ZM192.583 230.611C193.306 230.611 193.891 230.832 194.339 231.273C194.788 231.707 195.012 232.336 195.012 233.16V236.662H194.036V233.301C194.036 232.708 193.888 232.256 193.591 231.945C193.295 231.627 192.89 231.468 192.377 231.468C191.856 231.468 191.44 231.631 191.13 231.956C190.826 232.281 190.674 232.755 190.674 233.377V236.662H189.687V230.72H190.674V231.566C190.869 231.262 191.133 231.027 191.466 230.861C191.806 230.694 192.178 230.611 192.583 230.611ZM204.785 230.72V236.662H203.798V235.784C203.61 236.088 203.347 236.326 203.007 236.5C202.674 236.666 202.305 236.749 201.901 236.749C201.438 236.749 201.022 236.655 200.654 236.467C200.285 236.272 199.992 235.983 199.775 235.6C199.566 235.216 199.461 234.75 199.461 234.201V230.72H200.437V234.071C200.437 234.656 200.585 235.108 200.881 235.426C201.178 235.737 201.583 235.892 202.096 235.892C202.624 235.892 203.039 235.73 203.343 235.404C203.647 235.079 203.798 234.606 203.798 233.984V230.72H204.785ZM207.438 231.815C207.633 231.475 207.923 231.193 208.306 230.969C208.696 230.738 209.148 230.622 209.661 230.622C210.189 230.622 210.666 230.749 211.093 231.002C211.526 231.255 211.866 231.613 212.112 232.075C212.358 232.531 212.481 233.062 212.481 233.669C212.481 234.269 212.358 234.804 212.112 235.274C211.866 235.744 211.526 236.109 211.093 236.37C210.666 236.63 210.189 236.76 209.661 236.76C209.155 236.76 208.707 236.648 208.317 236.424C207.933 236.192 207.641 235.907 207.438 235.567V239.482H206.451V230.72H207.438V231.815ZM211.472 233.669C211.472 233.221 211.382 232.831 211.201 232.498C211.02 232.166 210.775 231.913 210.464 231.739C210.16 231.566 209.824 231.479 209.455 231.479C209.094 231.479 208.758 231.569 208.447 231.75C208.143 231.923 207.897 232.18 207.709 232.52C207.529 232.852 207.438 233.239 207.438 233.68C207.438 234.128 207.529 234.522 207.709 234.862C207.897 235.195 208.143 235.451 208.447 235.632C208.758 235.806 209.094 235.892 209.455 235.892C209.824 235.892 210.16 235.806 210.464 235.632C210.775 235.451 211.02 235.195 211.201 234.862C211.382 234.522 211.472 234.125 211.472 233.669Z" fill="#FAFAFA"/>
<defs>
<filter id="filter0_ddddd_13_3725" x="0.773756" y="0.219037" width="381.855" height="353.055" filterUnits="userSpaceOnUse" color-interpolation-filters="sRGB">
<feFlood flood-opacity="0" result="BackgroundImageFix"/>
<feColorMatrix in="SourceAlpha" type="matrix" values="0 0 0 0 0 0 0 0 0 0 0 0 0 0 0 0 0 0 127 0" result="hardAlpha"/>
<feOffset dy="1.11566"/>
<feGaussianBlur stdDeviation="0.948313"/>
<feColorMatrix type="matrix" values="0 0 0 0 0.219608 0 0 0 0 0.219608 0 0 0 0 0.219608 0 0 0 0.0240741 0"/>
<feBlend mode="normal" in2="BackgroundImageFix" result="effect1_dropShadow_13_3725"/>
<feColorMatrix in="SourceAlpha" type="matrix" values="0 0 0 0 0 0 0 0 0 0 0 0 0 0 0 0 0 0 127 0" result="hardAlpha"/>
<feOffset dy="4.90891"/>
<feGaussianBlur stdDeviation="1.96356"/>
<feColorMatrix type="matrix" values="0 0 0 0 0.219608 0 0 0 0 0.219608 0 0 0 0 0.219608 0 0 0 0.0392593 0"/>
<feBlend mode="normal" in2="effect1_dropShadow_13_3725" result="effect2_dropShadow_13_3725"/>
<feColorMatrix in="SourceAlpha" type="matrix" values="0 0 0 0 0 0 0 0 0 0 0 0 0 0 0 0 0 0 127 0" result="hardAlpha"/>
<feOffset dy="12.0491"/>
<feGaussianBlur stdDeviation="3.91597"/>
<feColorMatrix type="matrix" values="0 0 0 0 0.219608 0 0 0 0 0.219608 0 0 0 0 0.219608 0 0 0 0.05 0"/>
<feBlend mode="normal" in2="effect2_dropShadow_13_3725" result="effect3_dropShadow_13_3725"/>
<feColorMatrix in="SourceAlpha" type="matrix" values="0 0 0 0 0 0 0 0 0 0 0 0 0 0 0 0 0 0 127 0" result="hardAlpha"/>
<feOffset dy="23.2058"/>
<feGaussianBlur stdDeviation="7.67575"/>
<feColorMatrix type="matrix" values="0 0 0 0 0.219608 0 0 0 0 0.219608 0 0 0 0 0.219608 0 0 0 0.0607407 0"/>
<feBlend mode="normal" in2="effect3_dropShadow_13_3725" result="effect4_dropShadow_13_3725"/>
<feColorMatrix in="SourceAlpha" type="matrix" values="0 0 0 0 0 0 0 0 0 0 0 0 0 0 0 0 0 0 127 0" result="hardAlpha"/>
<feOffset dy="39.0482"/>
<feGaussianBlur stdDeviation="14.1131"/>
<feColorMatrix type="matrix" values="0 0 0 0 0.219608 0 0 0 0 0.219608 0 0 0 0 0.219608 0 0 0 0.0759259 0"/>
<feBlend mode="normal" in2="effect4_dropShadow_13_3725" result="effect5_dropShadow_13_3725"/>
<feBlend mode="normal" in="SourceGraphic" in2="effect5_dropShadow_13_3725" result="shape"/>
</filter>
<filter id="filter1_dddddd_13_3725" x="98.7345" y="214.242" width="187.967" height="144.166" filterUnits="userSpaceOnUse" color-interpolation-filters="sRGB">
<feFlood flood-opacity="0" result="BackgroundImageFix"/>
<feColorMatrix in="SourceAlpha" type="matrix" values="0 0 0 0 0 0 0 0 0 0 0 0 0 0 0 0 0 0 127 0" result="hardAlpha"/>
<feOffset dy="1.11566"/>
<feGaussianBlur stdDeviation="0.948313"/>
<feColorMatrix type="matrix" values="0 0 0 0 0.219608 0 0 0 0 0.219608 0 0 0 0 0.219608 0 0 0 0.0240741 0"/>
<feBlend mode="normal" in2="BackgroundImageFix" result="effect1_dropShadow_13_3725"/>
<feColorMatrix in="SourceAlpha" type="matrix" values="0 0 0 0 0 0 0 0 0 0 0 0 0 0 0 0 0 0 127 0" result="hardAlpha"/>
<feOffset dy="4.90891"/>
<feGaussianBlur stdDeviation="1.96356"/>
<feColorMatrix type="matrix" values="0 0 0 0 0.219608 0 0 0 0 0.219608 0 0 0 0 0.219608 0 0 0 0.0392593 0"/>
<feBlend mode="normal" in2="effect1_dropShadow_13_3725" result="effect2_dropShadow_13_3725"/>
<feColorMatrix in="SourceAlpha" type="matrix" values="0 0 0 0 0 0 0 0 0 0 0 0 0 0 0 0 0 0 127 0" result="hardAlpha"/>
<feOffset dy="12.0491"/>
<feGaussianBlur stdDeviation="3.91597"/>
<feColorMatrix type="matrix" values="0 0 0 0 0.219608 0 0 0 0 0.219608 0 0 0 0 0.219608 0 0 0 0.05 0"/>
<feBlend mode="normal" in2="effect2_dropShadow_13_3725" result="effect3_dropShadow_13_3725"/>
<feColorMatrix in="SourceAlpha" type="matrix" values="0 0 0 0 0 0 0 0 0 0 0 0 0 0 0 0 0 0 127 0" result="hardAlpha"/>
<feOffset dy="23.2058"/>
<feGaussianBlur stdDeviation="7.67575"/>
<feColorMatrix type="matrix" values="0 0 0 0 0.219608 0 0 0 0 0.219608 0 0 0 0 0.219608 0 0 0 0.0607407 0"/>
<feBlend mode="normal" in2="effect3_dropShadow_13_3725" result="effect4_dropShadow_13_3725"/>
<feColorMatrix in="SourceAlpha" type="matrix" values="0 0 0 0 0 0 0 0 0 0 0 0 0 0 0 0 0 0 127 0" result="hardAlpha"/>
<feOffset dy="39.0482"/>
<feGaussianBlur stdDeviation="14.1131"/>
<feColorMatrix type="matrix" values="0 0 0 0 0.219608 0 0 0 0 0.219608 0 0 0 0 0.219608 0 0 0 0.0759259 0"/>
<feBlend mode="normal" in2="effect4_dropShadow_13_3725" result="effect5_dropShadow_13_3725"/>
<feColorMatrix in="SourceAlpha" type="matrix" values="0 0 0 0 0 0 0 0 0 0 0 0 0 0 0 0 0 0 127 0" result="hardAlpha"/>
<feOffset dy="60.2457"/>
<feGaussianBlur stdDeviation="24.0983"/>
<feColorMatrix type="matrix" values="0 0 0 0 0.219608 0 0 0 0 0.219608 0 0 0 0 0.219608 0 0 0 0.1 0"/>
<feBlend mode="normal" in2="effect5_dropShadow_13_3725" result="effect6_dropShadow_13_3725"/>
<feBlend mode="normal" in="SourceGraphic" in2="effect6_dropShadow_13_3725" result="shape"/>
</filter>
</defs>
</svg>
