<svg width="378" height="209" viewBox="0 0 378 209" fill="none" xmlns="http://www.w3.org/2000/svg">
<g filter="url(#filter0_ddddd_13_3743)">
<rect x="39" y="2" width="300" height="114" fill="white"/>
<rect x="39.4138" y="2.41379" width="299.172" height="113.172" stroke="#F1F1F1" stroke-width="0.827586"/>
</g>
<path d="M216 59C216 66.1607 213.155 73.0285 208.092 78.092C203.028 83.1552 196.161 86 189 86C181.839 86 174.972 83.1552 169.908 78.092C164.845 73.0285 162 66.1607 162 59C162 51.8392 164.845 44.9716 169.908 39.9081C174.972 34.8446 181.839 32 189 32C196.161 32 203.028 34.8446 208.092 39.9081C213.155 44.9716 216 51.8392 216 59Z" fill="url(#paint0_linear_13_3743)"/>
<g filter="url(#filter1_d_13_3743)">
<path d="M179.549 75.7024C179.549 73.9204 183.777 74.2039 188.999 74.2039C194.216 74.2039 198.449 73.9204 198.449 75.7024C198.449 77.8489 194.216 79.2495 188.999 79.2495C183.777 79.2495 179.549 77.8489 179.549 75.7024Z" fill="#222222"/>
</g>
<path d="M179.549 75.7024C179.549 73.9204 183.777 74.2039 188.999 74.2039C194.216 74.2039 198.449 73.9204 198.449 75.7024C198.449 77.8489 194.216 79.2495 188.999 79.2495C183.777 79.2495 179.549 77.8489 179.549 75.7024Z" fill="url(#paint1_linear_13_3743)"/>
<path d="M174.147 65.1802C174.147 62.5106 175.963 60.3506 178.197 60.3506C180.434 60.3506 182.247 62.5106 182.247 65.1802C182.247 66.2906 181.933 67.3166 181.396 68.13C181.146 68.5046 180.762 68.7699 180.323 68.8725C179.817 68.994 179.064 69.1256 178.197 69.1256C177.329 69.1256 176.573 68.994 176.071 68.8725C175.631 68.7709 175.247 68.5053 174.997 68.13C174.432 67.2508 174.137 66.2255 174.147 65.1802ZM195.747 65.1802C195.747 62.5106 197.559 60.3506 199.797 60.3506C202.031 60.3506 203.847 62.5106 203.847 65.1802C203.847 66.2906 203.53 67.3166 202.996 68.13C202.746 68.5053 202.363 68.7709 201.923 68.8725C201.227 69.0392 200.513 69.1239 199.797 69.1256C198.93 69.1256 198.177 68.994 197.671 68.8725C197.231 68.7699 196.846 68.5046 196.594 68.13C196.031 67.2498 195.737 66.2248 195.747 65.1802Z" fill="url(#paint2_linear_13_3743)"/>
<g filter="url(#filter2_i_13_3743)">
<path d="M174.147 65.1802C174.147 62.5106 175.963 60.3506 178.197 60.3506C180.434 60.3506 182.247 62.5106 182.247 65.1802C182.247 66.2906 181.933 67.3166 181.396 68.13C181.146 68.5046 180.762 68.7699 180.323 68.8725C179.817 68.994 179.064 69.1256 178.197 69.1256C177.329 69.1256 176.573 68.994 176.071 68.8725C175.631 68.7709 175.247 68.5053 174.997 68.13C174.432 67.2508 174.137 66.2255 174.147 65.1802ZM195.747 65.1802C195.747 62.5106 197.559 60.3506 199.797 60.3506C202.031 60.3506 203.847 62.5106 203.847 65.1802C203.847 66.2906 203.53 67.3166 202.996 68.13C202.746 68.5053 202.363 68.7709 201.923 68.8725C201.227 69.0392 200.513 69.1239 199.797 69.1256C198.93 69.1256 198.177 68.994 197.671 68.8725C197.231 68.7699 196.846 68.5046 196.594 68.13C196.031 67.2498 195.737 66.2248 195.747 65.1802Z" fill="#222222"/>
</g>
<path d="M178.771 63.4965C178.788 63.5753 178.795 63.6556 178.795 63.7361C178.795 64.4145 178.201 64.9714 177.465 64.9714C176.732 64.9714 176.138 64.4145 176.138 63.7361C176.138 63.456 176.24 63.1961 176.408 62.9902C177.164 63.1691 177.958 63.3412 178.771 63.4965ZM198.771 64.9714C198.059 64.9714 197.479 64.455 197.445 63.7969C198.319 63.6686 199.186 63.51 200.03 63.3379C200.077 63.4665 200.1 63.6026 200.098 63.7395C200.098 64.4145 199.507 64.9714 198.771 64.9714Z" fill="#4F4F67"/>
<g filter="url(#filter3_d_13_3743)">
<path d="M192.374 57.1771C192.374 58.6824 192.924 59.2021 193.875 59.2021C194.82 59.2021 195.273 58.2706 195.583 55.6044C199.39 55.6044 205.836 57.4066 206.457 57.4066C207.058 57.4066 207.392 57.1198 207.527 56.5055C207.645 55.9723 207.45 55.466 206.781 55.1555C204.686 54.1869 198.536 51.9999 193.335 51.9999C192.768 51.9999 192.374 52.2901 192.374 53.0158V57.1771ZM182.414 55.6044C182.724 58.2706 183.177 59.2021 184.122 59.2021C185.073 59.2021 185.624 58.6824 185.624 57.1771V53.0158C185.624 52.2901 185.229 51.9999 184.662 51.9999C179.461 51.9999 173.312 54.1869 171.216 55.1555C170.547 55.466 170.352 55.9723 170.47 56.5055C170.608 57.1198 170.942 57.4066 171.54 57.4066C172.161 57.4066 178.607 55.6044 182.414 55.6044Z" fill="#222222"/>
</g>
<path d="M192.374 57.1771C192.374 58.6824 192.924 59.2021 193.875 59.2021C194.82 59.2021 195.273 58.2706 195.583 55.6044C199.39 55.6044 205.836 57.4066 206.457 57.4066C207.058 57.4066 207.392 57.1198 207.527 56.5055C207.645 55.9723 207.45 55.466 206.781 55.1555C204.686 54.1869 198.536 51.9999 193.335 51.9999C192.768 51.9999 192.374 52.2901 192.374 53.0158V57.1771ZM182.414 55.6044C182.724 58.2706 183.177 59.2021 184.122 59.2021C185.073 59.2021 185.624 58.6824 185.624 57.1771V53.0158C185.624 52.2901 185.229 51.9999 184.662 51.9999C179.461 51.9999 173.312 54.1869 171.216 55.1555C170.547 55.466 170.352 55.9723 170.47 56.5055C170.608 57.1198 170.942 57.4066 171.54 57.4066C172.161 57.4066 178.607 55.6044 182.414 55.6044Z" fill="url(#paint3_linear_13_3743)"/>
<path d="M129 59C129 66.1607 126.155 73.0285 121.092 78.092C116.029 83.1552 109.161 86 102 86C94.8392 86 87.9716 83.1552 82.9081 78.092C77.8446 73.0285 75 66.1607 75 59C75 51.8392 77.8446 44.9716 82.9081 39.9081C87.9716 34.8446 94.8392 32 102 32C109.161 32 116.029 34.8446 121.092 39.9081C126.155 44.9716 129 51.8392 129 59Z" fill="url(#paint4_linear_13_3743)"/>
<path d="M94.0455 68.747C93.5122 74.9739 96.4957 79.25 102 79.25C107.502 79.25 110.488 74.9739 109.955 68.747C109.425 62.5167 106.192 59 102 59C97.8086 59 94.5754 62.5167 94.0455 68.747Z" fill="url(#paint5_linear_13_3743)"/>
<path d="M86.8123 50.5625C86.8123 47.768 88.6989 45.5 91.0311 45.5C93.3632 45.5 95.2498 47.768 95.2498 50.5625C95.2498 53.3604 93.3632 55.625 91.0311 55.625C88.6989 55.625 86.8123 53.3604 86.8123 50.5625ZM108.75 50.5625C108.75 47.768 110.64 45.5 112.969 45.5C115.301 45.5 117.187 47.768 117.187 50.5625C117.187 53.3604 115.301 55.625 112.969 55.625C110.64 55.625 108.75 53.3604 108.75 50.5625Z" fill="url(#paint6_linear_13_3743)"/>
<g filter="url(#filter4_i_13_3743)">
<path d="M86.8123 50.5625C86.8123 47.768 88.6989 45.5 91.0311 45.5C93.3632 45.5 95.2498 47.768 95.2498 50.5625C95.2498 53.3604 93.3632 55.625 91.0311 55.625C88.6989 55.625 86.8123 53.3604 86.8123 50.5625ZM108.75 50.5625C108.75 47.768 110.64 45.5 112.969 45.5C115.301 45.5 117.187 47.768 117.187 50.5625C117.187 53.3604 115.301 55.625 112.969 55.625C110.64 55.625 108.75 53.3604 108.75 50.5625Z" fill="#222222"/>
</g>
<path d="M90.1272 47.4153C90.755 47.5571 91.106 48.2658 90.9102 48.9982C90.7179 49.7339 90.053 50.2132 89.4252 50.0714C88.7975 49.9297 88.4465 49.2209 88.6422 48.4852C88.8346 47.7562 89.4995 47.2702 90.1272 47.4153ZM112.598 47.6279C113.293 47.7865 113.685 48.5729 113.469 49.3829C113.253 50.203 112.517 50.7329 111.818 50.5777C111.123 50.4224 110.732 49.6327 110.948 48.8193C111.16 48.0025 111.899 47.4693 112.601 47.6279H112.598Z" fill="#4E506A"/>
<g filter="url(#filter5_d_13_3743)">
<path d="M112.352 37.723C112.528 37.7062 112.703 37.6994 112.882 37.6994C114.526 37.6994 116.223 38.3879 117.513 39.5962C117.745 39.8178 117.883 40.1209 117.897 40.4418C117.911 40.7628 117.8 41.0766 117.587 41.3174C117.484 41.4355 117.358 41.5316 117.218 41.5999C117.077 41.6683 116.924 41.7074 116.767 41.7149C116.611 41.7225 116.455 41.6984 116.308 41.644C116.161 41.5896 116.027 41.5061 115.913 41.3984C114.985 40.5243 113.699 40.0484 112.565 40.153C112.172 40.1825 111.789 40.2978 111.445 40.4908C111.102 40.6838 110.804 40.9498 110.574 41.2702C110.481 41.3957 110.364 41.5015 110.23 41.5812C110.096 41.661 109.948 41.7131 109.794 41.7345C109.639 41.7559 109.482 41.7461 109.331 41.7058C109.181 41.6655 109.04 41.5954 108.917 41.4997C108.664 41.2994 108.5 41.009 108.458 40.6898C108.416 40.3706 108.499 40.0474 108.69 39.7885C109.116 39.2004 109.663 38.7113 110.295 38.3547C110.927 37.9982 111.629 37.7827 112.352 37.723ZM86.4829 39.5962C87.7343 38.4061 89.3868 37.7292 91.1134 37.6994C91.9292 37.6817 92.737 37.8626 93.4672 38.2266C94.1974 38.5905 94.8282 39.1266 95.3052 39.7885C95.4962 40.0473 95.5797 40.37 95.5382 40.6889C95.4967 41.0079 95.3333 41.2984 95.0824 41.4997C94.9591 41.5955 94.8178 41.6656 94.6669 41.706C94.516 41.7464 94.3586 41.7561 94.2038 41.7347C94.0491 41.7134 93.9002 41.6613 93.766 41.5815C93.6317 41.5017 93.5147 41.3958 93.4219 41.2702C93.1916 40.95 92.894 40.684 92.5501 40.4911C92.2061 40.2981 91.824 40.1827 91.4307 40.153C90.3001 40.0484 89.0108 40.5243 88.0827 41.3984C87.969 41.5061 87.8347 41.5896 87.6879 41.644C87.5411 41.6984 87.3848 41.7225 87.2284 41.7149C87.0721 41.7074 86.9188 41.6683 86.7779 41.5999C86.6371 41.5316 86.5115 41.4355 86.4087 41.3174C86.1961 41.0766 86.085 40.7628 86.0988 40.4418C86.1127 40.1209 86.2504 39.8178 86.4829 39.5962Z" fill="#222222"/>
</g>
<path d="M112.352 37.723C112.528 37.7062 112.703 37.6994 112.882 37.6994C114.526 37.6994 116.223 38.3879 117.513 39.5962C117.745 39.8178 117.883 40.1209 117.897 40.4418C117.911 40.7628 117.8 41.0766 117.587 41.3174C117.484 41.4355 117.358 41.5316 117.218 41.5999C117.077 41.6683 116.924 41.7074 116.767 41.7149C116.611 41.7225 116.455 41.6984 116.308 41.644C116.161 41.5896 116.027 41.5061 115.913 41.3984C114.985 40.5243 113.699 40.0484 112.565 40.153C112.172 40.1825 111.789 40.2978 111.445 40.4908C111.102 40.6838 110.804 40.9498 110.574 41.2702C110.481 41.3957 110.364 41.5015 110.23 41.5812C110.096 41.661 109.948 41.7131 109.794 41.7345C109.639 41.7559 109.482 41.7461 109.331 41.7058C109.181 41.6655 109.04 41.5954 108.917 41.4997C108.664 41.2994 108.5 41.009 108.458 40.6898C108.416 40.3706 108.499 40.0474 108.69 39.7885C109.116 39.2004 109.663 38.7113 110.295 38.3547C110.927 37.9982 111.629 37.7827 112.352 37.723ZM86.4829 39.5962C87.7343 38.4061 89.3868 37.7292 91.1134 37.6994C91.9292 37.6817 92.737 37.8626 93.4672 38.2266C94.1974 38.5905 94.8282 39.1266 95.3052 39.7885C95.4962 40.0473 95.5797 40.37 95.5382 40.6889C95.4967 41.0079 95.3333 41.2984 95.0824 41.4997C94.9591 41.5955 94.8178 41.6656 94.6669 41.706C94.516 41.7464 94.3586 41.7561 94.2038 41.7347C94.0491 41.7134 93.9002 41.6613 93.766 41.5815C93.6317 41.5017 93.5147 41.3958 93.4219 41.2702C93.1916 40.95 92.894 40.684 92.5501 40.4911C92.2061 40.2981 91.824 40.1827 91.4307 40.153C90.3001 40.0484 89.0108 40.5243 88.0827 41.3984C87.969 41.5061 87.8347 41.5896 87.6879 41.644C87.5411 41.6984 87.3848 41.7225 87.2284 41.7149C87.0721 41.7074 86.9188 41.6683 86.7779 41.5999C86.6371 41.5316 86.5115 41.4355 86.4087 41.3174C86.1961 41.0766 86.085 40.7628 86.0988 40.4418C86.1127 40.1209 86.2504 39.8178 86.4829 39.5962Z" fill="url(#paint7_linear_13_3743)"/>
<path d="M276 32C268.839 32 261.971 34.8446 256.908 39.9081C251.845 44.9716 249 51.8392 249 59C249 66.1607 251.845 73.0285 256.908 78.092C261.971 83.1552 268.839 86 276 86C283.161 86 290.028 83.1552 295.092 78.092C300.155 73.0285 303 66.1607 303 59C303 51.8392 300.155 44.9716 295.092 39.9081C290.028 34.8446 283.161 32 276 32Z" fill="url(#paint8_linear_13_3743)"/>
<path d="M284.349 45.5002C276.931 45.5002 276.003 51.6562 276.003 51.6562C276.003 51.6562 275.078 45.5002 267.66 45.5002C260.525 45.5002 258.446 52.9995 259.317 57.009C261.612 67.6065 276.003 75.0315 276.003 75.0315C276.003 75.0315 290.397 67.6065 292.692 57.009C293.56 52.9995 291.477 45.5002 284.349 45.5002Z" fill="white"/>
<defs>
<filter id="filter0_ddddd_13_3743" x="0.226051" y="0.927203" width="377.548" height="207.487" filterUnits="userSpaceOnUse" color-interpolation-filters="sRGB">
<feFlood flood-opacity="0" result="BackgroundImageFix"/>
<feColorMatrix in="SourceAlpha" type="matrix" values="0 0 0 0 0 0 0 0 0 0 0 0 0 0 0 0 0 0 127 0" result="hardAlpha"/>
<feOffset dy="1.53257"/>
<feGaussianBlur stdDeviation="1.30268"/>
<feColorMatrix type="matrix" values="0 0 0 0 0.219608 0 0 0 0 0.219608 0 0 0 0 0.219608 0 0 0 0.0240741 0"/>
<feBlend mode="normal" in2="BackgroundImageFix" result="effect1_dropShadow_13_3743"/>
<feColorMatrix in="SourceAlpha" type="matrix" values="0 0 0 0 0 0 0 0 0 0 0 0 0 0 0 0 0 0 127 0" result="hardAlpha"/>
<feOffset dy="6.7433"/>
<feGaussianBlur stdDeviation="2.69732"/>
<feColorMatrix type="matrix" values="0 0 0 0 0.219608 0 0 0 0 0.219608 0 0 0 0 0.219608 0 0 0 0.0392593 0"/>
<feBlend mode="normal" in2="effect1_dropShadow_13_3743" result="effect2_dropShadow_13_3743"/>
<feColorMatrix in="SourceAlpha" type="matrix" values="0 0 0 0 0 0 0 0 0 0 0 0 0 0 0 0 0 0 127 0" result="hardAlpha"/>
<feOffset dy="16.5517"/>
<feGaussianBlur stdDeviation="5.37931"/>
<feColorMatrix type="matrix" values="0 0 0 0 0.219608 0 0 0 0 0.219608 0 0 0 0 0.219608 0 0 0 0.05 0"/>
<feBlend mode="normal" in2="effect2_dropShadow_13_3743" result="effect3_dropShadow_13_3743"/>
<feColorMatrix in="SourceAlpha" type="matrix" values="0 0 0 0 0 0 0 0 0 0 0 0 0 0 0 0 0 0 127 0" result="hardAlpha"/>
<feOffset dy="31.8774"/>
<feGaussianBlur stdDeviation="10.5441"/>
<feColorMatrix type="matrix" values="0 0 0 0 0.219608 0 0 0 0 0.219608 0 0 0 0 0.219608 0 0 0 0.0607407 0"/>
<feBlend mode="normal" in2="effect3_dropShadow_13_3743" result="effect4_dropShadow_13_3743"/>
<feColorMatrix in="SourceAlpha" type="matrix" values="0 0 0 0 0 0 0 0 0 0 0 0 0 0 0 0 0 0 127 0" result="hardAlpha"/>
<feOffset dy="53.6398"/>
<feGaussianBlur stdDeviation="19.387"/>
<feColorMatrix type="matrix" values="0 0 0 0 0.219608 0 0 0 0 0.219608 0 0 0 0 0.219608 0 0 0 0.0759259 0"/>
<feBlend mode="normal" in2="effect4_dropShadow_13_3743" result="effect5_dropShadow_13_3743"/>
<feBlend mode="normal" in="SourceGraphic" in2="effect5_dropShadow_13_3743" result="shape"/>
</filter>
<filter id="filter1_d_13_3743" x="178.049" y="74.1873" width="21.9" height="8.06226" filterUnits="userSpaceOnUse" color-interpolation-filters="sRGB">
<feFlood flood-opacity="0" result="BackgroundImageFix"/>
<feColorMatrix in="SourceAlpha" type="matrix" values="0 0 0 0 0 0 0 0 0 0 0 0 0 0 0 0 0 0 127 0" result="hardAlpha"/>
<feOffset dy="1.5"/>
<feGaussianBlur stdDeviation="0.75"/>
<feColorMatrix type="matrix" values="0 0 0 0 1 0 0 0 0 0.509681 0 0 0 0 0 0 0 0 0.371207 0"/>
<feBlend mode="normal" in2="BackgroundImageFix" result="effect1_dropShadow_13_3743"/>
<feBlend mode="normal" in="SourceGraphic" in2="effect1_dropShadow_13_3743" result="shape"/>
</filter>
<filter id="filter2_i_13_3743" x="174.147" y="60.3506" width="29.7003" height="8.77515" filterUnits="userSpaceOnUse" color-interpolation-filters="sRGB">
<feFlood flood-opacity="0" result="BackgroundImageFix"/>
<feBlend mode="normal" in="SourceGraphic" in2="BackgroundImageFix" result="shape"/>
<feColorMatrix in="SourceAlpha" type="matrix" values="0 0 0 0 0 0 0 0 0 0 0 0 0 0 0 0 0 0 127 0" result="hardAlpha"/>
<feOffset/>
<feGaussianBlur stdDeviation="0.75"/>
<feComposite in2="hardAlpha" operator="arithmetic" k2="-1" k3="1"/>
<feColorMatrix type="matrix" values="0 0 0 0 0.0387428 0 0 0 0 0.0406183 0 0 0 0 0.0875053 0 0 0 1 0"/>
<feBlend mode="normal" in2="shape" result="effect1_innerShadow_13_3743"/>
</filter>
<filter id="filter3_d_13_3743" x="170.287" y="52" width="37.4222" height="8.25215" filterUnits="userSpaceOnUse" color-interpolation-filters="sRGB">
<feFlood flood-opacity="0" result="BackgroundImageFix"/>
<feColorMatrix in="SourceAlpha" type="matrix" values="0 0 0 0 0 0 0 0 0 0 0 0 0 0 0 0 0 0 127 0" result="hardAlpha"/>
<feOffset dy="0.9"/>
<feGaussianBlur stdDeviation="0.075"/>
<feColorMatrix type="matrix" values="0 0 0 0 0.565875 0 0 0 0 0.151272 0 0 0 0 0 0 0 0 0.15024 0"/>
<feBlend mode="normal" in2="BackgroundImageFix" result="effect1_dropShadow_13_3743"/>
<feBlend mode="normal" in="SourceGraphic" in2="effect1_dropShadow_13_3743" result="shape"/>
</filter>
<filter id="filter4_i_13_3743" x="86.8123" y="45.5" width="30.375" height="10.125" filterUnits="userSpaceOnUse" color-interpolation-filters="sRGB">
<feFlood flood-opacity="0" result="BackgroundImageFix"/>
<feBlend mode="normal" in="SourceGraphic" in2="BackgroundImageFix" result="shape"/>
<feColorMatrix in="SourceAlpha" type="matrix" values="0 0 0 0 0 0 0 0 0 0 0 0 0 0 0 0 0 0 127 0" result="hardAlpha"/>
<feOffset/>
<feGaussianBlur stdDeviation="0.75"/>
<feComposite in2="hardAlpha" operator="arithmetic" k2="-1" k3="1"/>
<feColorMatrix type="matrix" values="0 0 0 0 0.0980392 0 0 0 0 0.101961 0 0 0 0 0.2 0 0 0 0.819684 0"/>
<feBlend mode="normal" in2="shape" result="effect1_innerShadow_13_3743"/>
</filter>
<filter id="filter5_d_13_3743" x="81.5977" y="34.6982" width="40.8002" height="13.0476" filterUnits="userSpaceOnUse" color-interpolation-filters="sRGB">
<feFlood flood-opacity="0" result="BackgroundImageFix"/>
<feColorMatrix in="SourceAlpha" type="matrix" values="0 0 0 0 0 0 0 0 0 0 0 0 0 0 0 0 0 0 127 0" result="hardAlpha"/>
<feOffset dy="1.5"/>
<feGaussianBlur stdDeviation="2.25"/>
<feColorMatrix type="matrix" values="0 0 0 0 0.803922 0 0 0 0 0.388235 0 0 0 0 0.00392157 0 0 0 0.145679 0"/>
<feBlend mode="normal" in2="BackgroundImageFix" result="effect1_dropShadow_13_3743"/>
<feBlend mode="normal" in="SourceGraphic" in2="effect1_dropShadow_13_3743" result="shape"/>
</filter>
<linearGradient id="paint0_linear_13_3743" x1="189" y1="32" x2="189" y2="68.2846" gradientUnits="userSpaceOnUse">
<stop stop-color="#E04300"/>
<stop offset="0.776042" stop-color="#FFA320"/>
</linearGradient>
<linearGradient id="paint1_linear_13_3743" x1="188.998" y1="78.5644" x2="188.998" y2="74.187" gradientUnits="userSpaceOnUse">
<stop stop-color="#3D0D00"/>
<stop offset="1" stop-color="#661C04"/>
</linearGradient>
<linearGradient id="paint2_linear_13_3743" x1="188.998" y1="60.3493" x2="188.998" y2="69.1243" gradientUnits="userSpaceOnUse">
<stop stop-color="#191A33"/>
<stop offset="0.872" stop-color="#3B426A"/>
</linearGradient>
<linearGradient id="paint3_linear_13_3743" x1="201.201" y1="51.3283" x2="201.201" y2="59.2021" gradientUnits="userSpaceOnUse">
<stop stop-color="#9A2F00"/>
<stop offset="1" stop-color="#D44800"/>
</linearGradient>
<linearGradient id="paint4_linear_13_3743" x1="102" y1="37.535" x2="102" y2="86" gradientUnits="userSpaceOnUse">
<stop stop-color="#FEEA70"/>
<stop offset="1" stop-color="#F69B30"/>
</linearGradient>
<linearGradient id="paint5_linear_13_3743" x1="102" y1="59" x2="102" y2="79.25" gradientUnits="userSpaceOnUse">
<stop stop-color="#472315"/>
<stop offset="1" stop-color="#8B3A0E"/>
</linearGradient>
<linearGradient id="paint6_linear_13_3743" x1="102" y1="45.5" x2="102" y2="55.625" gradientUnits="userSpaceOnUse">
<stop stop-color="#191A33"/>
<stop offset="0.872" stop-color="#3B426A"/>
</linearGradient>
<linearGradient id="paint7_linear_13_3743" x1="101.997" y1="37.6966" x2="101.997" y2="41.7466" gradientUnits="userSpaceOnUse">
<stop stop-color="#E78E0D"/>
<stop offset="1" stop-color="#CB6000"/>
</linearGradient>
<linearGradient id="paint8_linear_13_3743" x1="276" y1="32" x2="276" y2="86" gradientUnits="userSpaceOnUse">
<stop stop-color="#FF6680"/>
<stop offset="1" stop-color="#E61739"/>
</linearGradient>
</defs>
</svg>
