<svg width="200" height="76" viewBox="0 0 200 76" fill="none" xmlns="http://www.w3.org/2000/svg">
<g filter="url(#filter0_b_13_3542)">
<rect width="200" height="76" fill="white" fill-opacity="0.6"/>
</g>
<path d="M118 38C118 42.7738 116.103 47.3524 112.728 50.728C109.352 54.1035 104.774 56 100 56C95.2261 56 90.6477 54.1035 87.2721 50.728C83.8964 47.3524 82 42.7738 82 38C82 33.2261 83.8964 28.6477 87.2721 25.2721C90.6477 21.8964 95.2261 20 100 20C104.774 20 109.352 21.8964 112.728 25.2721C116.103 28.6477 118 33.2261 118 38Z" fill="url(#paint0_linear_13_3542)"/>
<g filter="url(#filter1_d_13_3542)">
<path d="M93.6992 50.4897C93.6992 51.6777 96.5185 51.4887 99.9992 51.4887C103.478 51.4887 106.299 51.6777 106.299 50.4897C106.299 49.0587 103.478 48.125 99.9992 48.125C96.5185 48.125 93.6992 49.0587 93.6992 50.4897Z" fill="#222222"/>
</g>
<path d="M93.6992 50.4897C93.6992 51.6777 96.5185 51.4887 99.9992 51.4887C103.478 51.4887 106.299 51.6777 106.299 50.4897C106.299 49.0587 103.478 48.125 99.9992 48.125C96.5185 48.125 93.6992 49.0587 93.6992 50.4897Z" fill="url(#paint1_linear_13_3542)"/>
<path d="M90.0978 42.1201C90.0978 40.3404 91.3083 38.9004 92.7978 38.9004C94.2896 38.9004 95.4978 40.3404 95.4978 42.1201C95.4978 42.8604 95.2886 43.5444 94.9308 44.0867C94.7637 44.3364 94.5079 44.5133 94.2153 44.5817C93.8778 44.6627 93.3761 44.7504 92.7978 44.7504C92.2196 44.7504 91.7156 44.6627 91.3803 44.5817C91.0874 44.5139 90.8315 44.3369 90.6648 44.0867C90.2881 43.5005 90.0911 42.817 90.0978 42.1201ZM104.498 42.1201C104.498 40.3404 105.706 38.9004 107.198 38.9004C108.687 38.9004 109.898 40.3404 109.898 42.1201C109.898 42.8604 109.686 43.5444 109.331 44.0867C109.164 44.3369 108.908 44.5139 108.615 44.5817C108.151 44.6928 107.675 44.7493 107.198 44.7504C106.62 44.7504 106.118 44.6627 105.78 44.5817C105.487 44.5133 105.231 44.3364 105.063 44.0867C104.688 43.4999 104.491 42.8165 104.498 42.1201Z" fill="url(#paint2_linear_13_3542)"/>
<g filter="url(#filter2_i_13_3542)">
<path d="M90.0978 42.1201C90.0978 40.3404 91.3083 38.9004 92.7978 38.9004C94.2896 38.9004 95.4978 40.3404 95.4978 42.1201C95.4978 42.8604 95.2886 43.5444 94.9308 44.0867C94.7637 44.3364 94.5079 44.5133 94.2153 44.5817C93.8778 44.6627 93.3761 44.7504 92.7978 44.7504C92.2196 44.7504 91.7156 44.6627 91.3803 44.5817C91.0874 44.5139 90.8315 44.3369 90.6648 44.0867C90.2881 43.5005 90.0911 42.817 90.0978 42.1201ZM104.498 42.1201C104.498 40.3404 105.706 38.9004 107.198 38.9004C108.687 38.9004 109.898 40.3404 109.898 42.1201C109.898 42.8604 109.686 43.5444 109.331 44.0867C109.164 44.3369 108.908 44.5139 108.615 44.5817C108.151 44.6928 107.675 44.7493 107.198 44.7504C106.62 44.7504 106.118 44.6627 105.78 44.5817C105.487 44.5133 105.231 44.3364 105.063 44.0867C104.688 43.4999 104.491 42.8165 104.498 42.1201Z" fill="#222222"/>
</g>
<path d="M93.1808 40.9977C93.1918 41.0502 93.1971 41.1037 93.1965 41.1574C93.1965 41.6097 92.8005 41.9809 92.31 41.9809C91.8218 41.9809 91.4258 41.6097 91.4258 41.1574C91.4258 40.9707 91.4933 40.7974 91.6058 40.6602C92.1098 40.7794 92.6385 40.8942 93.1808 40.9977ZM106.514 41.9809C106.04 41.9809 105.653 41.6367 105.63 41.1979C106.213 41.1124 106.791 41.0067 107.354 40.8919C107.385 40.9777 107.4 41.0684 107.399 41.1597C107.399 41.6097 107.005 41.9809 106.514 41.9809Z" fill="#4F4F67"/>
<g filter="url(#filter3_d_13_3542)">
<path d="M102.249 37.1C102.249 36.0965 102.616 35.75 103.25 35.75C103.88 35.75 104.182 36.371 104.389 38.1485C106.927 38.1485 111.224 36.947 111.638 36.947C112.039 36.947 112.262 37.1382 112.352 37.5477C112.43 37.9032 112.3 38.2408 111.854 38.4478C110.457 39.0935 106.358 40.5515 102.89 40.5515C102.512 40.5515 102.249 40.358 102.249 39.8743V37.1ZM95.6093 38.1485C95.8163 36.371 96.1178 35.75 96.7478 35.75C97.3823 35.75 97.7491 36.0965 97.7491 37.1V39.8743C97.7491 40.358 97.4858 40.5515 97.1078 40.5515C93.6406 40.5515 89.5411 39.0935 88.1438 38.4478C87.6983 38.2408 87.5678 37.9032 87.6466 37.5477C87.7388 37.1382 87.9616 36.947 88.3598 36.947C88.7738 36.947 93.0713 38.1485 95.6093 38.1485Z" fill="#222222"/>
</g>
<path d="M102.249 37.1C102.249 36.0965 102.616 35.75 103.25 35.75C103.88 35.75 104.182 36.371 104.389 38.1485C106.927 38.1485 111.224 36.947 111.638 36.947C112.039 36.947 112.262 37.1382 112.352 37.5477C112.43 37.9032 112.3 38.2408 111.854 38.4478C110.457 39.0935 106.358 40.5515 102.89 40.5515C102.512 40.5515 102.249 40.358 102.249 39.8743V37.1ZM95.6093 38.1485C95.8163 36.371 96.1178 35.75 96.7478 35.75C97.3823 35.75 97.7491 36.0965 97.7491 37.1V39.8743C97.7491 40.358 97.4858 40.5515 97.1078 40.5515C93.6406 40.5515 89.5411 39.0935 88.1438 38.4478C87.6983 38.2408 87.5678 37.9032 87.6466 37.5477C87.7388 37.1382 87.9616 36.947 88.3598 36.947C88.7738 36.947 93.0713 38.1485 95.6093 38.1485Z" fill="url(#paint3_linear_13_3542)"/>
<path d="M60 38C60 42.7738 58.1035 47.3524 54.728 50.728C51.3524 54.1035 46.7738 56 42 56C37.2261 56 32.6477 54.1035 29.2721 50.728C25.8964 47.3524 24 42.7738 24 38C24 33.2261 25.8964 28.6477 29.2721 25.2721C32.6477 21.8964 37.2261 20 42 20C46.7738 20 51.3524 21.8964 54.728 25.2721C58.1035 28.6477 60 33.2261 60 38Z" fill="url(#paint4_linear_13_3542)"/>
<path d="M36.697 44.498C36.3415 48.6492 38.3305 51.5 42.0002 51.5C45.6677 51.5 47.659 48.6492 47.3035 44.498C46.9502 40.3445 44.7947 38 42.0002 38C39.2057 38 37.0502 40.3445 36.697 44.498Z" fill="url(#paint5_linear_13_3542)"/>
<path d="M31.875 32.375C31.875 30.512 33.1328 29 34.6875 29C36.2422 29 37.5 30.512 37.5 32.375C37.5 34.2402 36.2422 35.75 34.6875 35.75C33.1328 35.75 31.875 34.2402 31.875 32.375ZM46.5 32.375C46.5 30.512 47.76 29 49.3125 29C50.8672 29 52.125 30.512 52.125 32.375C52.125 34.2402 50.8672 35.75 49.3125 35.75C47.76 35.75 46.5 34.2402 46.5 32.375Z" fill="url(#paint6_linear_13_3542)"/>
<g filter="url(#filter4_i_13_3542)">
<path d="M31.875 32.375C31.875 30.512 33.1328 29 34.6875 29C36.2422 29 37.5 30.512 37.5 32.375C37.5 34.2402 36.2422 35.75 34.6875 35.75C33.1328 35.75 31.875 34.2402 31.875 32.375ZM46.5 32.375C46.5 30.512 47.76 29 49.3125 29C50.8672 29 52.125 30.512 52.125 32.375C52.125 34.2402 50.8672 35.75 49.3125 35.75C47.76 35.75 46.5 34.2402 46.5 32.375Z" fill="#222222"/>
</g>
<path d="M34.0847 30.2769C34.5032 30.3714 34.7372 30.8439 34.6067 31.3321C34.4785 31.8226 34.0352 32.1421 33.6167 32.0476C33.1982 31.9531 32.9642 31.4806 33.0947 30.9901C33.223 30.5041 33.6662 30.1801 34.0847 30.2769ZM49.0653 30.4186C49.5288 30.5244 49.7898 31.0486 49.6458 31.5886C49.5018 32.1354 49.0113 32.4886 48.5456 32.3851C48.0821 32.2816 47.8211 31.7551 47.9651 31.2129C48.1068 30.6684 48.5996 30.3129 49.0676 30.4186H49.0653Z" fill="#4E506A"/>
<g filter="url(#filter5_d_13_3542)">
<path d="M48.9015 23.8154C49.0185 23.8041 49.1355 23.7996 49.2548 23.7996C50.3505 23.7996 51.4823 24.2586 52.3418 25.0641C52.4968 25.2119 52.5886 25.4139 52.5978 25.6279C52.607 25.8419 52.533 26.0511 52.3913 26.2116C52.3229 26.2903 52.2389 26.3544 52.1451 26.4C52.0513 26.4455 51.9491 26.4716 51.8447 26.4766C51.7406 26.4817 51.6364 26.4656 51.5385 26.4293C51.4406 26.3931 51.3511 26.3374 51.2753 26.2656C50.6565 25.6829 49.7993 25.3656 49.0433 25.4354C48.7811 25.455 48.5262 25.5318 48.2969 25.6605C48.0677 25.7892 47.8692 25.9665 47.7158 26.1801C47.6541 26.2638 47.5763 26.3343 47.4869 26.3875C47.3976 26.4407 47.2986 26.4754 47.1958 26.4897C47.0927 26.5039 46.9879 26.4974 46.8875 26.4705C46.7872 26.4436 46.6931 26.3969 46.611 26.3331C46.4429 26.1996 46.3332 26.006 46.3051 25.7932C46.277 25.5804 46.3326 25.365 46.4603 25.1924C46.7438 24.8003 47.1087 24.4742 47.5301 24.2365C47.9516 23.9988 48.4193 23.8551 48.9015 23.8154ZM31.6553 25.0641C32.4895 24.2707 33.5912 23.8195 34.7423 23.7996C35.2861 23.7878 35.8246 23.9084 36.3114 24.1511C36.7983 24.3937 37.2188 24.7511 37.5368 25.1924C37.6641 25.3649 37.7198 25.58 37.6921 25.7926C37.6644 26.0053 37.5555 26.1989 37.3883 26.3331C37.306 26.397 37.2118 26.4437 37.1112 26.4707C37.0107 26.4976 36.9057 26.5041 36.8025 26.4898C36.6994 26.4756 36.6001 26.4408 36.5106 26.3876C36.4211 26.3344 36.3431 26.2639 36.2813 26.1801C36.1277 25.9666 35.9293 25.7894 35.7 25.6607C35.4707 25.532 35.216 25.4551 34.9538 25.4354C34.2 25.3656 33.3405 25.6829 32.7218 26.2656C32.646 26.3374 32.5564 26.3931 32.4586 26.4293C32.3607 26.4656 32.2565 26.4817 32.1523 26.4766C32.048 26.4716 31.9458 26.4455 31.8519 26.4C31.758 26.3544 31.6743 26.2903 31.6058 26.2116C31.464 26.0511 31.39 25.8419 31.3992 25.6279C31.4085 25.4139 31.5002 25.2119 31.6553 25.0641Z" fill="#222222"/>
</g>
<path d="M48.9015 23.8154C49.0185 23.8041 49.1355 23.7996 49.2548 23.7996C50.3505 23.7996 51.4823 24.2586 52.3418 25.0641C52.4968 25.2119 52.5886 25.4139 52.5978 25.6279C52.607 25.8419 52.533 26.0511 52.3913 26.2116C52.3229 26.2903 52.2389 26.3544 52.1451 26.4C52.0513 26.4455 51.9491 26.4716 51.8447 26.4766C51.7406 26.4817 51.6364 26.4656 51.5385 26.4293C51.4406 26.3931 51.3511 26.3374 51.2753 26.2656C50.6565 25.6829 49.7993 25.3656 49.0433 25.4354C48.7811 25.455 48.5262 25.5318 48.2969 25.6605C48.0677 25.7892 47.8692 25.9665 47.7158 26.1801C47.6541 26.2638 47.5763 26.3343 47.4869 26.3875C47.3976 26.4407 47.2986 26.4754 47.1958 26.4897C47.0927 26.5039 46.9879 26.4974 46.8875 26.4705C46.7872 26.4436 46.6931 26.3969 46.611 26.3331C46.4429 26.1996 46.3332 26.006 46.3051 25.7932C46.277 25.5804 46.3326 25.365 46.4603 25.1924C46.7438 24.8003 47.1087 24.4742 47.5301 24.2365C47.9516 23.9988 48.4193 23.8551 48.9015 23.8154ZM31.6553 25.0641C32.4895 24.2707 33.5912 23.8195 34.7423 23.7996C35.2861 23.7878 35.8246 23.9084 36.3114 24.1511C36.7983 24.3937 37.2188 24.7511 37.5368 25.1924C37.6641 25.3649 37.7198 25.58 37.6921 25.7926C37.6644 26.0053 37.5555 26.1989 37.3883 26.3331C37.306 26.397 37.2118 26.4437 37.1112 26.4707C37.0107 26.4976 36.9057 26.5041 36.8025 26.4898C36.6994 26.4756 36.6001 26.4408 36.5106 26.3876C36.4211 26.3344 36.3431 26.2639 36.2813 26.1801C36.1277 25.9666 35.9293 25.7894 35.7 25.6607C35.4707 25.532 35.216 25.4551 34.9538 25.4354C34.2 25.3656 33.3405 25.6829 32.7218 26.2656C32.646 26.3374 32.5564 26.3931 32.4586 26.4293C32.3607 26.4656 32.2565 26.4817 32.1523 26.4766C32.048 26.4716 31.9458 26.4455 31.8519 26.4C31.758 26.3544 31.6743 26.2903 31.6058 26.2116C31.464 26.0511 31.39 25.8419 31.3992 25.6279C31.4085 25.4139 31.5002 25.2119 31.6553 25.0641Z" fill="url(#paint7_linear_13_3542)"/>
<path d="M158 20C153.226 20 148.648 21.8964 145.272 25.2721C141.896 28.6477 140 33.2261 140 38C140 42.7738 141.896 47.3524 145.272 50.728C148.648 54.1035 153.226 56 158 56C162.774 56 167.352 54.1035 170.728 50.728C174.103 47.3524 176 42.7738 176 38C176 33.2261 174.103 28.6477 170.728 25.2721C167.352 21.8964 162.774 20 158 20Z" fill="url(#paint8_linear_13_3542)"/>
<path d="M163.566 29C158.621 29 158.002 33.104 158.002 33.104C158.002 33.104 157.386 29 152.44 29C147.684 29 146.298 33.9995 146.878 36.6725C148.408 43.7375 158.002 48.6875 158.002 48.6875C158.002 48.6875 167.598 43.7375 169.128 36.6725C169.707 33.9995 168.318 29 163.566 29Z" fill="white"/>
<defs>
<filter id="filter0_b_13_3542" x="-10" y="-10" width="220" height="96" filterUnits="userSpaceOnUse" color-interpolation-filters="sRGB">
<feFlood flood-opacity="0" result="BackgroundImageFix"/>
<feGaussianBlur in="BackgroundImage" stdDeviation="5"/>
<feComposite in2="SourceAlpha" operator="in" result="effect1_backgroundBlur_13_3542"/>
<feBlend mode="normal" in="SourceGraphic" in2="effect1_backgroundBlur_13_3542" result="shape"/>
</filter>
<filter id="filter1_d_13_3542" x="92.6992" y="48.125" width="14.6" height="5.37476" filterUnits="userSpaceOnUse" color-interpolation-filters="sRGB">
<feFlood flood-opacity="0" result="BackgroundImageFix"/>
<feColorMatrix in="SourceAlpha" type="matrix" values="0 0 0 0 0 0 0 0 0 0 0 0 0 0 0 0 0 0 127 0" result="hardAlpha"/>
<feOffset dy="1"/>
<feGaussianBlur stdDeviation="0.5"/>
<feColorMatrix type="matrix" values="0 0 0 0 1 0 0 0 0 0.509681 0 0 0 0 0 0 0 0 0.371207 0"/>
<feBlend mode="normal" in2="BackgroundImageFix" result="effect1_dropShadow_13_3542"/>
<feBlend mode="normal" in="SourceGraphic" in2="effect1_dropShadow_13_3542" result="shape"/>
</filter>
<filter id="filter2_i_13_3542" x="90.0977" y="38.9004" width="19.8002" height="5.85004" filterUnits="userSpaceOnUse" color-interpolation-filters="sRGB">
<feFlood flood-opacity="0" result="BackgroundImageFix"/>
<feBlend mode="normal" in="SourceGraphic" in2="BackgroundImageFix" result="shape"/>
<feColorMatrix in="SourceAlpha" type="matrix" values="0 0 0 0 0 0 0 0 0 0 0 0 0 0 0 0 0 0 127 0" result="hardAlpha"/>
<feOffset/>
<feGaussianBlur stdDeviation="0.5"/>
<feComposite in2="hardAlpha" operator="arithmetic" k2="-1" k3="1"/>
<feColorMatrix type="matrix" values="0 0 0 0 0.0387428 0 0 0 0 0.0406183 0 0 0 0 0.0875053 0 0 0 1 0"/>
<feBlend mode="normal" in2="shape" result="effect1_innerShadow_13_3542"/>
</filter>
<filter id="filter3_d_13_3542" x="87.525" y="35.75" width="24.9482" height="5.50151" filterUnits="userSpaceOnUse" color-interpolation-filters="sRGB">
<feFlood flood-opacity="0" result="BackgroundImageFix"/>
<feColorMatrix in="SourceAlpha" type="matrix" values="0 0 0 0 0 0 0 0 0 0 0 0 0 0 0 0 0 0 127 0" result="hardAlpha"/>
<feOffset dy="0.6"/>
<feGaussianBlur stdDeviation="0.05"/>
<feColorMatrix type="matrix" values="0 0 0 0 0.565875 0 0 0 0 0.151272 0 0 0 0 0 0 0 0 0.15024 0"/>
<feBlend mode="normal" in2="BackgroundImageFix" result="effect1_dropShadow_13_3542"/>
<feBlend mode="normal" in="SourceGraphic" in2="effect1_dropShadow_13_3542" result="shape"/>
</filter>
<filter id="filter4_i_13_3542" x="31.875" y="29" width="20.25" height="6.75" filterUnits="userSpaceOnUse" color-interpolation-filters="sRGB">
<feFlood flood-opacity="0" result="BackgroundImageFix"/>
<feBlend mode="normal" in="SourceGraphic" in2="BackgroundImageFix" result="shape"/>
<feColorMatrix in="SourceAlpha" type="matrix" values="0 0 0 0 0 0 0 0 0 0 0 0 0 0 0 0 0 0 127 0" result="hardAlpha"/>
<feOffset/>
<feGaussianBlur stdDeviation="0.5"/>
<feComposite in2="hardAlpha" operator="arithmetic" k2="-1" k3="1"/>
<feColorMatrix type="matrix" values="0 0 0 0 0.0980392 0 0 0 0 0.101961 0 0 0 0 0.2 0 0 0 0.819684 0"/>
<feBlend mode="normal" in2="shape" result="effect1_innerShadow_13_3542"/>
</filter>
<filter id="filter5_d_13_3542" x="28.3984" y="21.7988" width="27.2001" height="8.69836" filterUnits="userSpaceOnUse" color-interpolation-filters="sRGB">
<feFlood flood-opacity="0" result="BackgroundImageFix"/>
<feColorMatrix in="SourceAlpha" type="matrix" values="0 0 0 0 0 0 0 0 0 0 0 0 0 0 0 0 0 0 127 0" result="hardAlpha"/>
<feOffset dy="1"/>
<feGaussianBlur stdDeviation="1.5"/>
<feColorMatrix type="matrix" values="0 0 0 0 0.803922 0 0 0 0 0.388235 0 0 0 0 0.00392157 0 0 0 0.145679 0"/>
<feBlend mode="normal" in2="BackgroundImageFix" result="effect1_dropShadow_13_3542"/>
<feBlend mode="normal" in="SourceGraphic" in2="effect1_dropShadow_13_3542" result="shape"/>
</filter>
<linearGradient id="paint0_linear_13_3542" x1="100" y1="20" x2="100" y2="44.1897" gradientUnits="userSpaceOnUse">
<stop stop-color="#E04300"/>
<stop offset="1" stop-color="#FFA320"/>
</linearGradient>
<linearGradient id="paint1_linear_13_3542" x1="99.9988" y1="48.5817" x2="99.9988" y2="51.5" gradientUnits="userSpaceOnUse">
<stop stop-color="#3D0D00"/>
<stop offset="1" stop-color="#661C04"/>
</linearGradient>
<linearGradient id="paint2_linear_13_3542" x1="99.9985" y1="38.8995" x2="99.9985" y2="44.7495" gradientUnits="userSpaceOnUse">
<stop stop-color="#191A33"/>
<stop offset="0.872" stop-color="#3B426A"/>
</linearGradient>
<linearGradient id="paint3_linear_13_3542" x1="108.134" y1="40.9992" x2="108.134" y2="35.75" gradientUnits="userSpaceOnUse">
<stop stop-color="#9A2F00"/>
<stop offset="1" stop-color="#D44800"/>
</linearGradient>
<linearGradient id="paint4_linear_13_3542" x1="42" y1="23.69" x2="42" y2="56" gradientUnits="userSpaceOnUse">
<stop stop-color="#FEEA70"/>
<stop offset="1" stop-color="#F69B30"/>
</linearGradient>
<linearGradient id="paint5_linear_13_3542" x1="42" y1="38" x2="42" y2="51.5" gradientUnits="userSpaceOnUse">
<stop stop-color="#472315"/>
<stop offset="1" stop-color="#8B3A0E"/>
</linearGradient>
<linearGradient id="paint6_linear_13_3542" x1="42" y1="29" x2="42" y2="35.75" gradientUnits="userSpaceOnUse">
<stop stop-color="#191A33"/>
<stop offset="0.872" stop-color="#3B426A"/>
</linearGradient>
<linearGradient id="paint7_linear_13_3542" x1="41.9981" y1="23.7977" x2="41.9981" y2="26.4977" gradientUnits="userSpaceOnUse">
<stop stop-color="#E78E0D"/>
<stop offset="1" stop-color="#CB6000"/>
</linearGradient>
<linearGradient id="paint8_linear_13_3542" x1="158" y1="20" x2="158" y2="56" gradientUnits="userSpaceOnUse">
<stop stop-color="#FF6680"/>
<stop offset="1" stop-color="#E61739"/>
</linearGradient>
</defs>
</svg>
