<svg width="461" height="232" viewBox="0 0 461 232" fill="none" xmlns="http://www.w3.org/2000/svg">
<g filter="url(#filter0_ddddd_13_3771)">
<rect x="39" y="2" width="383" height="137" fill="white"/>
<rect x="39.4138" y="2.41379" width="382.172" height="136.172" stroke="#F1F1F1" stroke-width="0.827586"/>
</g>
<g filter="url(#filter1_i_13_3771)">
<rect x="78" y="59" width="315" height="50" fill="#FAFAFA"/>
</g>
<g filter="url(#filter2_d_13_3771)">
<path d="M319 68.5V103" stroke="#E8E7E7"/>
</g>
<path d="M318.5 68V102.5" stroke="white"/>
<g filter="url(#filter3_d_13_3771)">
<path d="M347.138 78.1326C350.148 75.2316 354.627 75.3472 357.412 78.1326C360.075 80.7961 360.238 85.0134 357.9 87.8669L362.035 92.0019L361.008 93.0292L356.873 88.8946C354.019 91.2325 349.802 91.0696 347.138 88.4061C344.353 85.6208 344.222 80.9438 347.138 78.1326V78.1326ZM356.385 79.16C354.115 76.8904 350.435 76.8904 348.166 79.16C345.896 81.4295 345.896 85.1092 348.166 87.3788C350.435 89.6483 354.115 89.6483 356.385 87.3788C358.654 85.1092 358.654 81.4295 356.385 79.16Z" fill="#0AC05E"/>
</g>
<path d="M95.0252 89.084C94.4732 89.084 93.9772 88.988 93.5372 88.796C93.1052 88.596 92.7652 88.324 92.5172 87.98C92.2692 87.628 92.1412 87.224 92.1332 86.768H93.2972C93.3372 87.16 93.4972 87.492 93.7772 87.764C94.0652 88.028 94.4812 88.16 95.0252 88.16C95.5452 88.16 95.9532 88.032 96.2492 87.776C96.5532 87.512 96.7052 87.176 96.7052 86.768C96.7052 86.448 96.6172 86.188 96.4412 85.988C96.2652 85.788 96.0452 85.636 95.7812 85.532C95.5172 85.428 95.1612 85.316 94.7132 85.196C94.1612 85.052 93.7172 84.908 93.3812 84.764C93.0532 84.62 92.7692 84.396 92.5292 84.092C92.2972 83.78 92.1812 83.364 92.1812 82.844C92.1812 82.388 92.2972 81.984 92.5292 81.632C92.7612 81.28 93.0852 81.008 93.5012 80.816C93.9252 80.624 94.4092 80.528 94.9532 80.528C95.7372 80.528 96.3772 80.724 96.8732 81.116C97.3772 81.508 97.6612 82.028 97.7252 82.676H96.5252C96.4852 82.356 96.3172 82.076 96.0212 81.836C95.7252 81.588 95.3332 81.464 94.8452 81.464C94.3892 81.464 94.0172 81.584 93.7292 81.824C93.4412 82.056 93.2972 82.384 93.2972 82.808C93.2972 83.112 93.3812 83.36 93.5492 83.552C93.7252 83.744 93.9372 83.892 94.1852 83.996C94.4412 84.092 94.7972 84.204 95.2532 84.332C95.8052 84.484 96.2492 84.636 96.5852 84.788C96.9212 84.932 97.2092 85.16 97.4492 85.472C97.6892 85.776 97.8092 86.192 97.8092 86.72C97.8092 87.128 97.7012 87.512 97.4852 87.872C97.2692 88.232 96.9492 88.524 96.5252 88.748C96.1012 88.972 95.6012 89.084 95.0252 89.084ZM105.416 85.46C105.416 85.668 105.404 85.888 105.38 86.12H100.124C100.164 86.768 100.384 87.276 100.784 87.644C101.192 88.004 101.684 88.184 102.26 88.184C102.732 88.184 103.124 88.076 103.436 87.86C103.756 87.636 103.98 87.34 104.108 86.972H105.284C105.108 87.604 104.756 88.12 104.228 88.52C103.7 88.912 103.044 89.108 102.26 89.108C101.636 89.108 101.076 88.968 100.58 88.688C100.092 88.408 99.7082 88.012 99.4282 87.5C99.1482 86.98 99.0082 86.38 99.0082 85.7C99.0082 85.02 99.1442 84.424 99.4162 83.912C99.6882 83.4 100.068 83.008 100.556 82.736C101.052 82.456 101.62 82.316 102.26 82.316C102.884 82.316 103.436 82.452 103.916 82.724C104.396 82.996 104.764 83.372 105.02 83.852C105.284 84.324 105.416 84.86 105.416 85.46ZM104.288 85.232C104.288 84.816 104.196 84.46 104.012 84.164C103.828 83.86 103.576 83.632 103.256 83.48C102.944 83.32 102.596 83.24 102.212 83.24C101.66 83.24 101.188 83.416 100.796 83.768C100.412 84.12 100.192 84.608 100.136 85.232H104.288ZM106.45 85.688C106.45 85.016 106.586 84.428 106.858 83.924C107.13 83.412 107.502 83.016 107.974 82.736C108.454 82.456 108.986 82.316 109.57 82.316C110.146 82.316 110.646 82.44 111.07 82.688C111.494 82.936 111.81 83.248 112.018 83.624V82.424H113.122V89H112.018V87.776C111.802 88.16 111.478 88.48 111.046 88.736C110.622 88.984 110.126 89.108 109.558 89.108C108.974 89.108 108.446 88.964 107.974 88.676C107.502 88.388 107.13 87.984 106.858 87.464C106.586 86.944 106.45 86.352 106.45 85.688ZM112.018 85.7C112.018 85.204 111.918 84.772 111.718 84.404C111.518 84.036 111.246 83.756 110.902 83.564C110.566 83.364 110.194 83.264 109.786 83.264C109.378 83.264 109.006 83.36 108.67 83.552C108.334 83.744 108.066 84.024 107.866 84.392C107.666 84.76 107.566 85.192 107.566 85.688C107.566 86.192 107.666 86.632 107.866 87.008C108.066 87.376 108.334 87.66 108.67 87.86C109.006 88.052 109.378 88.148 109.786 88.148C110.194 88.148 110.566 88.052 110.902 87.86C111.246 87.66 111.518 87.376 111.718 87.008C111.918 86.632 112.018 86.196 112.018 85.7ZM116.059 83.492C116.251 83.116 116.523 82.824 116.875 82.616C117.235 82.408 117.671 82.304 118.183 82.304V83.432H117.895C116.671 83.432 116.059 84.096 116.059 85.424V89H114.967V82.424H116.059V83.492ZM119.036 85.7C119.036 85.02 119.172 84.428 119.444 83.924C119.716 83.412 120.092 83.016 120.572 82.736C121.06 82.456 121.616 82.316 122.24 82.316C123.048 82.316 123.712 82.512 124.232 82.904C124.76 83.296 125.108 83.84 125.276 84.536H124.1C123.988 84.136 123.768 83.82 123.44 83.588C123.12 83.356 122.72 83.24 122.24 83.24C121.616 83.24 121.112 83.456 120.728 83.888C120.344 84.312 120.152 84.916 120.152 85.7C120.152 86.492 120.344 87.104 120.728 87.536C121.112 87.968 121.616 88.184 122.24 88.184C122.72 88.184 123.12 88.072 123.44 87.848C123.76 87.624 123.98 87.304 124.1 86.888H125.276C125.1 87.56 124.748 88.1 124.22 88.508C123.692 88.908 123.032 89.108 122.24 89.108C121.616 89.108 121.06 88.968 120.572 88.688C120.092 88.408 119.716 88.012 119.444 87.5C119.172 86.988 119.036 86.388 119.036 85.7ZM129.997 82.304C130.493 82.304 130.941 82.412 131.341 82.628C131.741 82.836 132.053 83.152 132.277 83.576C132.509 84 132.625 84.516 132.625 85.124V89H131.545V85.28C131.545 84.624 131.381 84.124 131.053 83.78C130.725 83.428 130.277 83.252 129.709 83.252C129.133 83.252 128.673 83.432 128.329 83.792C127.993 84.152 127.825 84.676 127.825 85.364V89H126.733V80.12H127.825V83.36C128.041 83.024 128.337 82.764 128.713 82.58C129.097 82.396 129.525 82.304 129.997 82.304ZM139.936 89.108C139.432 89.108 138.98 89.024 138.58 88.856C138.18 88.68 137.864 88.44 137.632 88.136C137.4 87.824 137.272 87.468 137.248 87.068H138.376C138.408 87.396 138.56 87.664 138.832 87.872C139.112 88.08 139.476 88.184 139.924 88.184C140.34 88.184 140.668 88.092 140.908 87.908C141.148 87.724 141.268 87.492 141.268 87.212C141.268 86.924 141.14 86.712 140.884 86.576C140.628 86.432 140.232 86.292 139.696 86.156C139.208 86.028 138.808 85.9 138.496 85.772C138.192 85.636 137.928 85.44 137.704 85.184C137.488 84.92 137.38 84.576 137.38 84.152C137.38 83.816 137.48 83.508 137.68 83.228C137.88 82.948 138.164 82.728 138.532 82.568C138.9 82.4 139.32 82.316 139.792 82.316C140.52 82.316 141.108 82.5 141.556 82.868C142.004 83.236 142.244 83.74 142.276 84.38H141.184C141.16 84.036 141.02 83.76 140.764 83.552C140.516 83.344 140.18 83.24 139.756 83.24C139.364 83.24 139.052 83.324 138.82 83.492C138.588 83.66 138.472 83.88 138.472 84.152C138.472 84.368 138.54 84.548 138.676 84.692C138.82 84.828 138.996 84.94 139.204 85.028C139.42 85.108 139.716 85.2 140.092 85.304C140.564 85.432 140.948 85.56 141.244 85.688C141.54 85.808 141.792 85.992 142 86.24C142.216 86.488 142.328 86.812 142.336 87.212C142.336 87.572 142.236 87.896 142.036 88.184C141.836 88.472 141.552 88.7 141.184 88.868C140.824 89.028 140.408 89.108 139.936 89.108ZM149.877 85.46C149.877 85.668 149.865 85.888 149.841 86.12H144.585C144.625 86.768 144.845 87.276 145.245 87.644C145.653 88.004 146.145 88.184 146.721 88.184C147.193 88.184 147.585 88.076 147.897 87.86C148.217 87.636 148.441 87.34 148.569 86.972H149.745C149.569 87.604 149.217 88.12 148.689 88.52C148.161 88.912 147.505 89.108 146.721 89.108C146.097 89.108 145.537 88.968 145.041 88.688C144.553 88.408 144.169 88.012 143.889 87.5C143.609 86.98 143.469 86.38 143.469 85.7C143.469 85.02 143.605 84.424 143.877 83.912C144.149 83.4 144.529 83.008 145.017 82.736C145.513 82.456 146.081 82.316 146.721 82.316C147.345 82.316 147.897 82.452 148.377 82.724C148.857 82.996 149.225 83.372 149.481 83.852C149.745 84.324 149.877 84.86 149.877 85.46ZM148.749 85.232C148.749 84.816 148.657 84.46 148.473 84.164C148.289 83.86 148.037 83.632 147.717 83.48C147.405 83.32 147.057 83.24 146.673 83.24C146.121 83.24 145.649 83.416 145.257 83.768C144.873 84.12 144.653 84.608 144.597 85.232H148.749ZM152.411 83.492C152.603 83.116 152.875 82.824 153.227 82.616C153.587 82.408 154.023 82.304 154.535 82.304V83.432H154.247C153.023 83.432 152.411 84.096 152.411 85.424V89H151.319V82.424H152.411V83.492ZM158.243 87.992L160.283 82.424H161.447L158.867 89H157.595L155.015 82.424H156.191L158.243 87.992ZM163.086 81.356C162.878 81.356 162.702 81.284 162.558 81.14C162.414 80.996 162.342 80.82 162.342 80.612C162.342 80.404 162.414 80.228 162.558 80.084C162.702 79.94 162.878 79.868 163.086 79.868C163.286 79.868 163.454 79.94 163.59 80.084C163.734 80.228 163.806 80.404 163.806 80.612C163.806 80.82 163.734 80.996 163.59 81.14C163.454 81.284 163.286 81.356 163.086 81.356ZM163.614 82.424V89H162.522V82.424H163.614ZM165.067 85.7C165.067 85.02 165.203 84.428 165.475 83.924C165.747 83.412 166.123 83.016 166.603 82.736C167.091 82.456 167.647 82.316 168.271 82.316C169.079 82.316 169.743 82.512 170.263 82.904C170.791 83.296 171.139 83.84 171.307 84.536H170.131C170.019 84.136 169.799 83.82 169.471 83.588C169.151 83.356 168.751 83.24 168.271 83.24C167.647 83.24 167.143 83.456 166.759 83.888C166.375 84.312 166.183 84.916 166.183 85.7C166.183 86.492 166.375 87.104 166.759 87.536C167.143 87.968 167.647 88.184 168.271 88.184C168.751 88.184 169.151 88.072 169.471 87.848C169.791 87.624 170.011 87.304 170.131 86.888H171.307C171.131 87.56 170.779 88.1 170.251 88.508C169.723 88.908 169.063 89.108 168.271 89.108C167.647 89.108 167.091 88.968 166.603 88.688C166.123 88.408 165.747 88.012 165.475 87.5C165.203 86.988 165.067 86.388 165.067 85.7ZM178.764 85.46C178.764 85.668 178.752 85.888 178.728 86.12H173.472C173.512 86.768 173.732 87.276 174.132 87.644C174.54 88.004 175.032 88.184 175.608 88.184C176.08 88.184 176.472 88.076 176.784 87.86C177.104 87.636 177.328 87.34 177.456 86.972H178.632C178.456 87.604 178.104 88.12 177.576 88.52C177.048 88.912 176.392 89.108 175.608 89.108C174.984 89.108 174.424 88.968 173.928 88.688C173.44 88.408 173.056 88.012 172.776 87.5C172.496 86.98 172.356 86.38 172.356 85.7C172.356 85.02 172.492 84.424 172.764 83.912C173.036 83.4 173.416 83.008 173.904 82.736C174.4 82.456 174.968 82.316 175.608 82.316C176.232 82.316 176.784 82.452 177.264 82.724C177.744 82.996 178.112 83.372 178.368 83.852C178.632 84.324 178.764 84.86 178.764 85.46ZM177.636 85.232C177.636 84.816 177.544 84.46 177.36 84.164C177.176 83.86 176.924 83.632 176.604 83.48C176.292 83.32 175.944 83.24 175.56 83.24C175.008 83.24 174.536 83.416 174.144 83.768C173.76 84.12 173.54 84.608 173.484 85.232H177.636ZM182.533 89.108C182.029 89.108 181.577 89.024 181.177 88.856C180.777 88.68 180.461 88.44 180.229 88.136C179.997 87.824 179.869 87.468 179.845 87.068H180.973C181.005 87.396 181.157 87.664 181.429 87.872C181.709 88.08 182.073 88.184 182.521 88.184C182.937 88.184 183.265 88.092 183.505 87.908C183.745 87.724 183.865 87.492 183.865 87.212C183.865 86.924 183.737 86.712 183.481 86.576C183.225 86.432 182.829 86.292 182.293 86.156C181.805 86.028 181.405 85.9 181.093 85.772C180.789 85.636 180.525 85.44 180.301 85.184C180.085 84.92 179.977 84.576 179.977 84.152C179.977 83.816 180.077 83.508 180.277 83.228C180.477 82.948 180.761 82.728 181.129 82.568C181.497 82.4 181.917 82.316 182.389 82.316C183.117 82.316 183.705 82.5 184.153 82.868C184.601 83.236 184.841 83.74 184.873 84.38H183.781C183.757 84.036 183.617 83.76 183.361 83.552C183.113 83.344 182.777 83.24 182.353 83.24C181.961 83.24 181.649 83.324 181.417 83.492C181.185 83.66 181.069 83.88 181.069 84.152C181.069 84.368 181.137 84.548 181.273 84.692C181.417 84.828 181.593 84.94 181.801 85.028C182.017 85.108 182.313 85.2 182.689 85.304C183.161 85.432 183.545 85.56 183.841 85.688C184.137 85.808 184.389 85.992 184.597 86.24C184.813 86.488 184.925 86.812 184.933 87.212C184.933 87.572 184.833 87.896 184.633 88.184C184.433 88.472 184.149 88.7 183.781 88.868C183.421 89.028 183.005 89.108 182.533 89.108Z" fill="#D7D7D7"/>
<path d="M198.024 39.154C197.012 39.154 196.102 38.978 195.296 38.626C194.504 38.2593 193.88 37.7607 193.426 37.13C192.971 36.4847 192.736 35.744 192.722 34.908H194.856C194.929 35.6267 195.222 36.2353 195.736 36.734C196.264 37.218 197.026 37.46 198.024 37.46C198.977 37.46 199.725 37.2253 200.268 36.756C200.825 36.272 201.104 35.656 201.104 34.908C201.104 34.3213 200.942 33.8447 200.62 33.478C200.297 33.1113 199.894 32.8327 199.41 32.642C198.926 32.4513 198.273 32.246 197.452 32.026C196.44 31.762 195.626 31.498 195.01 31.234C194.408 30.97 193.888 30.5593 193.448 30.002C193.022 29.43 192.81 28.6673 192.81 27.714C192.81 26.878 193.022 26.1373 193.448 25.492C193.873 24.8467 194.467 24.348 195.23 23.996C196.007 23.644 196.894 23.468 197.892 23.468C199.329 23.468 200.502 23.8273 201.412 24.546C202.336 25.2647 202.856 26.218 202.974 27.406H200.774C200.7 26.8193 200.392 26.306 199.85 25.866C199.307 25.4113 198.588 25.184 197.694 25.184C196.858 25.184 196.176 25.404 195.648 25.844C195.12 26.2693 194.856 26.8707 194.856 27.648C194.856 28.2053 195.01 28.66 195.318 29.012C195.64 29.364 196.029 29.6353 196.484 29.826C196.953 30.002 197.606 30.2073 198.442 30.442C199.454 30.7207 200.268 30.9993 200.884 31.278C201.5 31.542 202.028 31.96 202.468 32.532C202.908 33.0893 203.128 33.852 203.128 34.82C203.128 35.568 202.93 36.272 202.534 36.932C202.138 37.592 201.551 38.1273 200.774 38.538C199.996 38.9487 199.08 39.154 198.024 39.154ZM217.074 32.51C217.074 32.8913 217.052 33.2947 217.008 33.72H207.372C207.445 34.908 207.849 35.8393 208.582 36.514C209.33 37.174 210.232 37.504 211.288 37.504C212.153 37.504 212.872 37.306 213.444 36.91C214.031 36.4993 214.441 35.9567 214.676 35.282H216.832C216.509 36.4407 215.864 37.3867 214.896 38.12C213.928 38.8387 212.725 39.198 211.288 39.198C210.144 39.198 209.117 38.9413 208.208 38.428C207.313 37.9147 206.609 37.1887 206.096 36.25C205.583 35.2967 205.326 34.1967 205.326 32.95C205.326 31.7033 205.575 30.6107 206.074 29.672C206.573 28.7333 207.269 28.0147 208.164 27.516C209.073 27.0027 210.115 26.746 211.288 26.746C212.432 26.746 213.444 26.9953 214.324 27.494C215.204 27.9927 215.879 28.682 216.348 29.562C216.832 30.4273 217.074 31.41 217.074 32.51ZM215.006 32.092C215.006 31.3293 214.837 30.6767 214.5 30.134C214.163 29.5767 213.701 29.1587 213.114 28.88C212.542 28.5867 211.904 28.44 211.2 28.44C210.188 28.44 209.323 28.7627 208.604 29.408C207.9 30.0533 207.497 30.948 207.394 32.092H215.006ZM218.968 32.928C218.968 31.696 219.218 30.618 219.716 29.694C220.215 28.7553 220.897 28.0293 221.762 27.516C222.642 27.0027 223.618 26.746 224.688 26.746C225.744 26.746 226.661 26.9733 227.438 27.428C228.216 27.8827 228.795 28.4547 229.176 29.144V26.944H231.2V39H229.176V36.756C228.78 37.46 228.186 38.0467 227.394 38.516C226.617 38.9707 225.708 39.198 224.666 39.198C223.596 39.198 222.628 38.934 221.762 38.406C220.897 37.878 220.215 37.1373 219.716 36.184C219.218 35.2307 218.968 34.1453 218.968 32.928ZM229.176 32.95C229.176 32.0407 228.993 31.2487 228.626 30.574C228.26 29.8993 227.761 29.386 227.13 29.034C226.514 28.6673 225.832 28.484 225.084 28.484C224.336 28.484 223.654 28.66 223.038 29.012C222.422 29.364 221.931 29.8773 221.564 30.552C221.198 31.2267 221.014 32.0187 221.014 32.928C221.014 33.852 221.198 34.6587 221.564 35.348C221.931 36.0227 222.422 36.5433 223.038 36.91C223.654 37.262 224.336 37.438 225.084 37.438C225.832 37.438 226.514 37.262 227.13 36.91C227.761 36.5433 228.26 36.0227 228.626 35.348C228.993 34.6587 229.176 33.8593 229.176 32.95ZM236.586 28.902C236.938 28.2127 237.436 27.6773 238.082 27.296C238.742 26.9147 239.541 26.724 240.48 26.724V28.792H239.952C237.708 28.792 236.586 30.0093 236.586 32.444V39H234.584V26.944H236.586V28.902ZM242.043 32.95C242.043 31.7033 242.292 30.618 242.791 29.694C243.289 28.7553 243.979 28.0293 244.859 27.516C245.753 27.0027 246.773 26.746 247.917 26.746C249.398 26.746 250.615 27.1053 251.569 27.824C252.537 28.5427 253.175 29.54 253.483 30.816H251.327C251.121 30.0827 250.718 29.5033 250.117 29.078C249.53 28.6527 248.797 28.44 247.917 28.44C246.773 28.44 245.849 28.836 245.145 29.628C244.441 30.4053 244.089 31.5127 244.089 32.95C244.089 34.402 244.441 35.524 245.145 36.316C245.849 37.108 246.773 37.504 247.917 37.504C248.797 37.504 249.53 37.2987 250.117 36.888C250.703 36.4773 251.107 35.8907 251.327 35.128H253.483C253.16 36.36 252.515 37.35 251.547 38.098C250.579 38.8313 249.369 39.198 247.917 39.198C246.773 39.198 245.753 38.9413 244.859 38.428C243.979 37.9147 243.289 37.1887 242.791 36.25C242.292 35.3113 242.043 34.2113 242.043 32.95ZM262.138 26.724C263.047 26.724 263.869 26.922 264.602 27.318C265.335 27.6993 265.907 28.2787 266.318 29.056C266.743 29.8333 266.956 30.7793 266.956 31.894V39H264.976V32.18C264.976 30.9773 264.675 30.0607 264.074 29.43C263.473 28.7847 262.651 28.462 261.61 28.462C260.554 28.462 259.711 28.792 259.08 29.452C258.464 30.112 258.156 31.0727 258.156 32.334V39H256.154V22.72H258.156V28.66C258.552 28.044 259.095 27.5673 259.784 27.23C260.488 26.8927 261.273 26.724 262.138 26.724Z" fill="#313131"/>
<defs>
<filter id="filter0_ddddd_13_3771" x="0.226051" y="0.927203" width="460.548" height="230.487" filterUnits="userSpaceOnUse" color-interpolation-filters="sRGB">
<feFlood flood-opacity="0" result="BackgroundImageFix"/>
<feColorMatrix in="SourceAlpha" type="matrix" values="0 0 0 0 0 0 0 0 0 0 0 0 0 0 0 0 0 0 127 0" result="hardAlpha"/>
<feOffset dy="1.53257"/>
<feGaussianBlur stdDeviation="1.30268"/>
<feColorMatrix type="matrix" values="0 0 0 0 0.219608 0 0 0 0 0.219608 0 0 0 0 0.219608 0 0 0 0.0240741 0"/>
<feBlend mode="normal" in2="BackgroundImageFix" result="effect1_dropShadow_13_3771"/>
<feColorMatrix in="SourceAlpha" type="matrix" values="0 0 0 0 0 0 0 0 0 0 0 0 0 0 0 0 0 0 127 0" result="hardAlpha"/>
<feOffset dy="6.7433"/>
<feGaussianBlur stdDeviation="2.69732"/>
<feColorMatrix type="matrix" values="0 0 0 0 0.219608 0 0 0 0 0.219608 0 0 0 0 0.219608 0 0 0 0.0392593 0"/>
<feBlend mode="normal" in2="effect1_dropShadow_13_3771" result="effect2_dropShadow_13_3771"/>
<feColorMatrix in="SourceAlpha" type="matrix" values="0 0 0 0 0 0 0 0 0 0 0 0 0 0 0 0 0 0 127 0" result="hardAlpha"/>
<feOffset dy="16.5517"/>
<feGaussianBlur stdDeviation="5.37931"/>
<feColorMatrix type="matrix" values="0 0 0 0 0.219608 0 0 0 0 0.219608 0 0 0 0 0.219608 0 0 0 0.05 0"/>
<feBlend mode="normal" in2="effect2_dropShadow_13_3771" result="effect3_dropShadow_13_3771"/>
<feColorMatrix in="SourceAlpha" type="matrix" values="0 0 0 0 0 0 0 0 0 0 0 0 0 0 0 0 0 0 127 0" result="hardAlpha"/>
<feOffset dy="31.8774"/>
<feGaussianBlur stdDeviation="10.5441"/>
<feColorMatrix type="matrix" values="0 0 0 0 0.219608 0 0 0 0 0.219608 0 0 0 0 0.219608 0 0 0 0.0607407 0"/>
<feBlend mode="normal" in2="effect3_dropShadow_13_3771" result="effect4_dropShadow_13_3771"/>
<feColorMatrix in="SourceAlpha" type="matrix" values="0 0 0 0 0 0 0 0 0 0 0 0 0 0 0 0 0 0 127 0" result="hardAlpha"/>
<feOffset dy="53.6398"/>
<feGaussianBlur stdDeviation="19.387"/>
<feColorMatrix type="matrix" values="0 0 0 0 0.219608 0 0 0 0 0.219608 0 0 0 0 0.219608 0 0 0 0.0759259 0"/>
<feBlend mode="normal" in2="effect4_dropShadow_13_3771" result="effect5_dropShadow_13_3771"/>
<feBlend mode="normal" in="SourceGraphic" in2="effect5_dropShadow_13_3771" result="shape"/>
</filter>
<filter id="filter1_i_13_3771" x="78" y="59" width="315" height="50" filterUnits="userSpaceOnUse" color-interpolation-filters="sRGB">
<feFlood flood-opacity="0" result="BackgroundImageFix"/>
<feBlend mode="normal" in="SourceGraphic" in2="BackgroundImageFix" result="shape"/>
<feColorMatrix in="SourceAlpha" type="matrix" values="0 0 0 0 0 0 0 0 0 0 0 0 0 0 0 0 0 0 127 0" result="hardAlpha"/>
<feOffset/>
<feGaussianBlur stdDeviation="3"/>
<feComposite in2="hardAlpha" operator="arithmetic" k2="-1" k3="1"/>
<feColorMatrix type="matrix" values="0 0 0 0 0 0 0 0 0 0 0 0 0 0 0 0 0 0 0.15 0"/>
<feBlend mode="normal" in2="shape" result="effect1_innerShadow_13_3771"/>
</filter>
<filter id="filter2_d_13_3771" x="316.5" y="66.5" width="9" height="42.5" filterUnits="userSpaceOnUse" color-interpolation-filters="sRGB">
<feFlood flood-opacity="0" result="BackgroundImageFix"/>
<feColorMatrix in="SourceAlpha" type="matrix" values="0 0 0 0 0 0 0 0 0 0 0 0 0 0 0 0 0 0 127 0" result="hardAlpha"/>
<feOffset dx="2" dy="2"/>
<feGaussianBlur stdDeviation="2"/>
<feComposite in2="hardAlpha" operator="out"/>
<feColorMatrix type="matrix" values="0 0 0 0 0 0 0 0 0 0 0 0 0 0 0 0 0 0 0.25 0"/>
<feBlend mode="normal" in2="BackgroundImageFix" result="effect1_dropShadow_13_3771"/>
<feBlend mode="normal" in="SourceGraphic" in2="effect1_dropShadow_13_3771" result="shape"/>
</filter>
<filter id="filter3_d_13_3771" x="345" y="76" width="21.035" height="21.0293" filterUnits="userSpaceOnUse" color-interpolation-filters="sRGB">
<feFlood flood-opacity="0" result="BackgroundImageFix"/>
<feColorMatrix in="SourceAlpha" type="matrix" values="0 0 0 0 0 0 0 0 0 0 0 0 0 0 0 0 0 0 127 0" result="hardAlpha"/>
<feOffset dx="2" dy="2"/>
<feGaussianBlur stdDeviation="1"/>
<feComposite in2="hardAlpha" operator="out"/>
<feColorMatrix type="matrix" values="0 0 0 0 0 0 0 0 0 0 0 0 0 0 0 0 0 0 0.25 0"/>
<feBlend mode="normal" in2="BackgroundImageFix" result="effect1_dropShadow_13_3771"/>
<feBlend mode="normal" in="SourceGraphic" in2="effect1_dropShadow_13_3771" result="shape"/>
</filter>
</defs>
</svg>
