<svg width="276" height="138" viewBox="0 0 276 138" fill="none" xmlns="http://www.w3.org/2000/svg">
<path d="M276 1.20643e-05C276 18.1224 272.431 36.0674 265.495 52.8103C258.56 69.5533 248.395 84.7663 235.581 97.5807C222.766 110.395 207.553 120.56 190.81 127.495C174.067 134.431 156.122 138 138 138C119.878 138 101.933 134.431 85.1897 127.495C68.4467 120.56 53.2337 110.395 40.4193 97.5807C27.6048 84.7663 17.4398 69.5532 10.5046 52.8103C3.56947 36.0674 -1.58431e-06 18.1224 0 0L50.9238 4.4519e-06C50.9238 11.435 53.1761 22.7581 57.5521 33.3226C61.9281 43.8872 68.342 53.4864 76.4278 61.5722C84.5136 69.658 94.1128 76.0719 104.677 80.4479C115.242 84.8239 126.565 87.0762 138 87.0762C149.435 87.0762 160.758 84.8239 171.323 80.4479C181.887 76.0719 191.486 69.658 199.572 61.5722C207.658 53.4864 214.072 43.8872 218.448 33.3226C222.824 22.7581 225.076 11.435 225.076 1.20643e-05H276Z" fill="#0AC05E"/>
</svg>
